<svg width="209" height="50" viewBox="0 0 209 50" fill="none" xmlns="http://www.w3.org/2000/svg">
<path d="M38.5 8.51562H10.5C8.29086 8.51562 6.5 10.3065 6.5 12.5156V40.5156C6.5 42.7248 8.29086 44.5156 10.5 44.5156H38.5C40.7091 44.5156 42.5 42.7248 42.5 40.5156V12.5156C42.5 10.3065 40.7091 8.51562 38.5 8.51562Z" stroke="#292D54" stroke-width="2" stroke-linecap="round" stroke-linejoin="round"/>
<path d="M32.5 4.51562V12.5156" stroke="#292D54" stroke-width="2" stroke-linecap="round" stroke-linejoin="round"/>
<path d="M16.5 4.51562V12.5156" stroke="#292D54" stroke-width="2" stroke-linecap="round" stroke-linejoin="round"/>
<path d="M6.5 20.5156H42.5" stroke="#292D54" stroke-width="2" stroke-linecap="round" stroke-linejoin="round"/>
<g style="mix-blend-mode:multiply">
<path d="M0.5 44.5156C0.5 41.7542 2.73858 39.5156 5.5 39.5156H45.5C48.2614 39.5156 50.5 41.7542 50.5 44.5156C50.5 47.277 48.2614 49.5156 45.5 49.5156H5.5C2.73858 49.5156 0.5 47.277 0.5 44.5156Z" fill="#0CAD9A"/>
</g>
<path d="M65.5972 31.0869L71.3932 18.2069H73.7484L79.5628 31.0869H77.0604L72.074 19.4765H73.0308L68.0628 31.0869H65.5972ZM68.2652 28.1061L68.9092 26.2293H75.8644L76.5084 28.1061H68.2652ZM85.895 34.7853C84.9873 34.7853 84.0979 34.6626 83.227 34.4173C82.3683 34.1842 81.663 33.8408 81.111 33.3869L82.1414 31.6573C82.5707 32.013 83.1105 32.2952 83.7606 32.5037C84.423 32.7245 85.0915 32.8349 85.7662 32.8349C86.8457 32.8349 87.6369 32.5834 88.1398 32.0805C88.6427 31.5898 88.8942 30.8477 88.8942 29.8541V28.1061L89.0782 25.8797L89.0046 23.6533V21.2613H91.1942V29.5965C91.1942 31.3752 90.7403 32.6816 89.8326 33.5157C88.9249 34.3621 87.6123 34.7853 85.895 34.7853ZM85.6006 30.6453C84.6683 30.6453 83.8219 30.449 83.0614 30.0565C82.3131 29.6517 81.7182 29.0936 81.2766 28.3821C80.8473 27.6706 80.6326 26.8365 80.6326 25.8797C80.6326 24.9352 80.8473 24.1072 81.2766 23.3957C81.7182 22.6842 82.3131 22.1322 83.0614 21.7397C83.8219 21.3472 84.6683 21.1509 85.6006 21.1509C86.4347 21.1509 87.183 21.3165 87.8454 21.6477C88.5078 21.9789 89.0353 22.4941 89.4278 23.1933C89.8326 23.8925 90.035 24.788 90.035 25.8797C90.035 26.9714 89.8326 27.873 89.4278 28.5845C89.0353 29.2837 88.5078 29.805 87.8454 30.1485C87.183 30.4797 86.4347 30.6453 85.6006 30.6453ZM85.9502 28.6949C86.5267 28.6949 87.0419 28.5784 87.4958 28.3453C87.9497 28.1 88.2993 27.7688 88.5446 27.3517C88.8022 26.9224 88.931 26.4317 88.931 25.8797C88.931 25.3277 88.8022 24.8432 88.5446 24.4261C88.2993 23.9968 87.9497 23.6717 87.4958 23.4509C87.0419 23.2178 86.5267 23.1013 85.9502 23.1013C85.3737 23.1013 84.8523 23.2178 84.3862 23.4509C83.9323 23.6717 83.5766 23.9968 83.319 24.4261C83.0737 24.8432 82.951 25.3277 82.951 25.8797C82.951 26.4317 83.0737 26.9224 83.319 27.3517C83.5766 27.7688 83.9323 28.1 84.3862 28.3453C84.8523 28.5784 85.3737 28.6949 85.9502 28.6949ZM99.3884 31.2157C98.2967 31.2157 97.3399 31.001 96.518 30.5717C95.7084 30.1301 95.0767 29.529 94.6228 28.7685C94.1812 28.008 93.9604 27.1432 93.9604 26.1741C93.9604 25.1928 94.1751 24.328 94.6044 23.5797C95.046 22.8192 95.6471 22.2242 96.4076 21.7949C97.1804 21.3656 98.0575 21.1509 99.0388 21.1509C99.9956 21.1509 100.848 21.3594 101.596 21.7765C102.345 22.1936 102.933 22.7824 103.363 23.5429C103.792 24.3034 104.007 25.1989 104.007 26.2293C104.007 26.3274 104.001 26.4378 103.988 26.5605C103.988 26.6832 103.982 26.7997 103.97 26.9101H95.782V25.3829H102.756L101.854 25.8613C101.866 25.297 101.75 24.8002 101.504 24.3709C101.259 23.9416 100.922 23.6042 100.492 23.3589C100.075 23.1136 99.5908 22.9909 99.0388 22.9909C98.4745 22.9909 97.9777 23.1136 97.5484 23.3589C97.1313 23.6042 96.8001 23.9477 96.5548 24.3893C96.3217 24.8186 96.2052 25.3277 96.2052 25.9165V26.2845C96.2052 26.8733 96.3401 27.3946 96.61 27.8485C96.8799 28.3024 97.2601 28.652 97.7508 28.8973C98.2415 29.1426 98.8057 29.2653 99.4436 29.2653C99.9956 29.2653 100.492 29.1794 100.934 29.0077C101.376 28.836 101.768 28.5661 102.112 28.1981L103.344 29.6149C102.903 30.1301 102.345 30.5288 101.67 30.8109C101.008 31.0808 100.247 31.2157 99.3884 31.2157ZM112.343 21.1509C113.128 21.1509 113.828 21.3042 114.441 21.6109C115.066 21.9176 115.557 22.3898 115.913 23.0277C116.269 23.6533 116.446 24.4629 116.446 25.4565V31.0869H114.146V25.7509C114.146 24.88 113.938 24.2298 113.521 23.8005C113.116 23.3712 112.546 23.1565 111.81 23.1565C111.27 23.1565 110.792 23.2669 110.374 23.4877C109.957 23.7085 109.632 24.0397 109.399 24.4813C109.178 24.9106 109.068 25.4565 109.068 26.1189V31.0869H106.768V21.2613H108.958V23.9109L108.571 23.1013C108.915 22.4757 109.412 21.9973 110.062 21.6661C110.724 21.3226 111.485 21.1509 112.343 21.1509ZM124.093 31.2157C123.148 31.2157 122.295 31.0072 121.535 30.5901C120.787 30.1608 120.198 29.572 119.769 28.8237C119.339 28.0754 119.125 27.1922 119.125 26.1741C119.125 25.156 119.339 24.2728 119.769 23.5245C120.198 22.7762 120.787 22.1936 121.535 21.7765C122.295 21.3594 123.148 21.1509 124.093 21.1509C124.914 21.1509 125.65 21.3349 126.301 21.7029C126.951 22.0586 127.466 22.6045 127.846 23.3405C128.226 24.0765 128.417 25.021 128.417 26.1741C128.417 27.3149 128.233 28.2594 127.865 29.0077C127.497 29.7437 126.987 30.2957 126.337 30.6637C125.687 31.0317 124.939 31.2157 124.093 31.2157ZM124.369 29.2469C124.921 29.2469 125.411 29.1242 125.841 28.8789C126.282 28.6336 126.632 28.2778 126.889 27.8117C127.159 27.3456 127.294 26.7997 127.294 26.1741C127.294 25.5362 127.159 24.9904 126.889 24.5365C126.632 24.0704 126.282 23.7146 125.841 23.4693C125.411 23.224 124.921 23.1013 124.369 23.1013C123.817 23.1013 123.32 23.224 122.878 23.4693C122.449 23.7146 122.099 24.0704 121.829 24.5365C121.572 24.9904 121.443 25.5362 121.443 26.1741C121.443 26.7997 121.572 27.3456 121.829 27.8117C122.099 28.2778 122.449 28.6336 122.878 28.8789C123.32 29.1242 123.817 29.2469 124.369 29.2469ZM127.349 31.0869V28.7685L127.441 26.1557L127.257 23.5429V17.4341H129.539V31.0869H127.349ZM139.172 31.0869V29.0997L139.043 28.6765V25.1989C139.043 24.5242 138.841 24.0029 138.436 23.6349C138.031 23.2546 137.418 23.0645 136.596 23.0645C136.044 23.0645 135.498 23.1504 134.958 23.3221C134.431 23.4938 133.983 23.733 133.615 24.0397L132.713 22.3653C133.241 21.9605 133.866 21.66 134.59 21.4637C135.326 21.2552 136.087 21.1509 136.872 21.1509C138.295 21.1509 139.393 21.4944 140.165 22.1813C140.95 22.856 141.343 23.9048 141.343 25.3277V31.0869H139.172ZM136.081 31.2157C135.345 31.2157 134.701 31.093 134.149 30.8477C133.597 30.5901 133.167 30.2405 132.861 29.7989C132.566 29.345 132.419 28.836 132.419 28.2717C132.419 27.7197 132.548 27.2229 132.805 26.7813C133.075 26.3397 133.511 25.9901 134.112 25.7325C134.713 25.4749 135.51 25.3461 136.504 25.3461H139.356V26.8733H136.669C135.884 26.8733 135.357 27.0021 135.087 27.2597C134.817 27.505 134.682 27.8117 134.682 28.1797C134.682 28.5968 134.848 28.928 135.179 29.1733C135.51 29.4186 135.97 29.5413 136.559 29.5413C137.123 29.5413 137.626 29.4125 138.068 29.1549C138.522 28.8973 138.847 28.517 139.043 28.0141L139.429 29.3941C139.209 29.9706 138.81 30.4184 138.233 30.7373C137.669 31.0562 136.952 31.2157 136.081 31.2157ZM157.248 21.1509C158.033 21.1509 158.726 21.3042 159.328 21.6109C159.941 21.9176 160.419 22.3898 160.763 23.0277C161.106 23.6533 161.278 24.4629 161.278 25.4565V31.0869H158.978V25.7509C158.978 24.88 158.788 24.2298 158.408 23.8005C158.027 23.3712 157.481 23.1565 156.77 23.1565C156.267 23.1565 155.819 23.2669 155.427 23.4877C155.046 23.7085 154.746 24.0336 154.525 24.4629C154.317 24.8922 154.212 25.4381 154.212 26.1005V31.0869H151.912V25.7509C151.912 24.88 151.722 24.2298 151.342 23.8005C150.962 23.3712 150.416 23.1565 149.704 23.1565C149.201 23.1565 148.754 23.2669 148.361 23.4877C147.981 23.7085 147.68 24.0336 147.46 24.4629C147.251 24.8922 147.147 25.4381 147.147 26.1005V31.0869H144.847V21.2613H147.036V23.8741L146.65 23.1013C146.981 22.4634 147.46 21.9789 148.085 21.6477C148.723 21.3165 149.447 21.1509 150.256 21.1509C151.176 21.1509 151.974 21.3778 152.648 21.8317C153.335 22.2856 153.789 22.9725 154.01 23.8925L153.108 23.5797C153.427 22.8437 153.955 22.2549 154.691 21.8133C155.427 21.3717 156.279 21.1509 157.248 21.1509ZM169.405 31.2157C168.314 31.2157 167.357 31.001 166.535 30.5717C165.725 30.1301 165.094 29.529 164.64 28.7685C164.198 28.008 163.977 27.1432 163.977 26.1741C163.977 25.1928 164.192 24.328 164.621 23.5797C165.063 22.8192 165.664 22.2242 166.425 21.7949C167.197 21.3656 168.074 21.1509 169.056 21.1509C170.013 21.1509 170.865 21.3594 171.613 21.7765C172.362 22.1936 172.95 22.7824 173.38 23.5429C173.809 24.3034 174.024 25.1989 174.024 26.2293C174.024 26.3274 174.018 26.4378 174.005 26.5605C174.005 26.6832 173.999 26.7997 173.987 26.9101H165.799V25.3829H172.773L171.871 25.8613C171.883 25.297 171.767 24.8002 171.521 24.3709C171.276 23.9416 170.939 23.6042 170.509 23.3589C170.092 23.1136 169.608 22.9909 169.056 22.9909C168.492 22.9909 167.995 23.1136 167.565 23.3589C167.148 23.6042 166.817 23.9477 166.572 24.3893C166.339 24.8186 166.222 25.3277 166.222 25.9165V26.2845C166.222 26.8733 166.357 27.3946 166.627 27.8485C166.897 28.3024 167.277 28.652 167.768 28.8973C168.258 29.1426 168.823 29.2653 169.461 29.2653C170.013 29.2653 170.509 29.1794 170.951 29.0077C171.393 28.836 171.785 28.5661 172.129 28.1981L173.361 29.6149C172.92 30.1301 172.362 30.5288 171.687 30.8109C171.025 31.0808 170.264 31.2157 169.405 31.2157ZM182.36 21.1509C183.145 21.1509 183.845 21.3042 184.458 21.6109C185.084 21.9176 185.574 22.3898 185.93 23.0277C186.286 23.6533 186.464 24.4629 186.464 25.4565V31.0869H184.164V25.7509C184.164 24.88 183.955 24.2298 183.538 23.8005C183.133 23.3712 182.563 23.1565 181.827 23.1565C181.287 23.1565 180.809 23.2669 180.392 23.4877C179.974 23.7085 179.649 24.0397 179.416 24.4813C179.196 24.9106 179.085 25.4565 179.085 26.1189V31.0869H176.785V21.2613H178.975V23.9109L178.588 23.1013C178.932 22.4757 179.429 21.9973 180.079 21.6661C180.741 21.3226 181.502 21.1509 182.36 21.1509ZM193.632 31.2157C192.552 31.2157 191.718 30.9397 191.129 30.3877C190.54 29.8234 190.246 28.9954 190.246 27.9037V19.0901H192.546V27.8485C192.546 28.3146 192.663 28.6765 192.896 28.9341C193.141 29.1917 193.478 29.3205 193.908 29.3205C194.423 29.3205 194.852 29.1856 195.196 28.9157L195.84 30.5533C195.57 30.7741 195.239 30.9397 194.846 31.0501C194.453 31.1605 194.049 31.2157 193.632 31.2157ZM188.627 23.1749V21.3349H195.177V23.1749H188.627ZM202.376 31.2157C201.37 31.2157 200.475 31.001 199.69 30.5717C198.905 30.1301 198.285 29.529 197.831 28.7685C197.378 28.008 197.151 27.1432 197.151 26.1741C197.151 25.1928 197.378 24.328 197.831 23.5797C198.285 22.8192 198.905 22.2242 199.69 21.7949C200.475 21.3656 201.37 21.1509 202.376 21.1509C203.394 21.1509 204.296 21.3656 205.081 21.7949C205.878 22.2242 206.498 22.813 206.939 23.5613C207.393 24.3096 207.62 25.1805 207.62 26.1741C207.62 27.1432 207.393 28.008 206.939 28.7685C206.498 29.529 205.878 30.1301 205.081 30.5717C204.296 31.001 203.394 31.2157 202.376 31.2157ZM202.376 29.2469C202.94 29.2469 203.443 29.1242 203.885 28.8789C204.327 28.6336 204.67 28.2778 204.915 27.8117C205.173 27.3456 205.302 26.7997 205.302 26.1741C205.302 25.5362 205.173 24.9904 204.915 24.5365C204.67 24.0704 204.327 23.7146 203.885 23.4693C203.443 23.224 202.947 23.1013 202.395 23.1013C201.83 23.1013 201.327 23.224 200.886 23.4693C200.456 23.7146 200.113 24.0704 199.855 24.5365C199.598 24.9904 199.469 25.5362 199.469 26.1741C199.469 26.7997 199.598 27.3456 199.855 27.8117C200.113 28.2778 200.456 28.6336 200.886 28.8789C201.327 29.1242 201.824 29.2469 202.376 29.2469Z" fill="#003336"/>
</svg>
