<svg width="50" height="50" viewBox="0 0 50 50" fill="none" xmlns="http://www.w3.org/2000/svg">
<g clip-path="url(#clip0_10_195)">
<path d="M24.5 2.32812V46.3281" stroke="#292D54" stroke-width="2" stroke-linecap="round" stroke-linejoin="round"/>
<path d="M34.5 10.3281H19.5C17.6435 10.3281 15.863 11.0656 14.5503 12.3784C13.2375 13.6911 12.5 15.4716 12.5 17.3281C12.5 19.1846 13.2375 20.9651 14.5503 22.2779C15.863 23.5906 17.6435 24.3281 19.5 24.3281H29.5C31.3565 24.3281 33.137 25.0656 34.4497 26.3784C35.7625 27.6911 36.5 29.4716 36.5 31.3281C36.5 33.1846 35.7625 34.9651 34.4497 36.2779C33.137 37.5906 31.3565 38.3281 29.5 38.3281H12.5" stroke="#292D54" stroke-width="2" stroke-linecap="round" stroke-linejoin="round"/>
<g style="mix-blend-mode:multiply">
<path d="M0.5 44.3281C0.5 41.5667 2.73858 39.3281 5.5 39.3281H45.5C48.2614 39.3281 50.5 41.5667 50.5 44.3281C50.5 47.0895 48.2614 49.3281 45.5 49.3281H5.5C2.73858 49.3281 0.5 47.0895 0.5 44.3281Z" fill="#0CAD9A"/>
</g>
</g>
<defs>
<clipPath id="clip0_10_195">
<rect width="50" height="50" fill="white"/>
</clipPath>
</defs>
</svg>
