<svg width="50" height="50" viewBox="0 0 50 50" fill="none" xmlns="http://www.w3.org/2000/svg">
<path d="M29.4031 24.9973L49.0763 5.35323C49.6643 4.76514 49.9947 3.96753 49.9947 3.13585C49.9947 2.30417 49.6643 1.50655 49.0763 0.918469C48.4883 0.330383 47.6907 0 46.8592 0C46.0276 0 45.23 0.330383 44.642 0.918469L25 20.5938L5.35799 0.918469C4.76996 0.330383 3.97243 7.38401e-07 3.14084 7.44598e-07C2.30925 7.50794e-07 1.51172 0.330383 0.9237 0.918469C0.335677 1.50655 0.00533001 2.30417 0.00533001 3.13585C0.00533 3.96753 0.335677 4.76514 0.9237 5.35323L20.5969 24.9973L0.9237 44.6414C0.631011 44.9318 0.398698 45.2772 0.240161 45.6578C0.0816236 46.0383 0 46.4465 0 46.8588C0 47.2711 0.0816236 47.6793 0.240161 48.0599C0.398698 48.4405 0.631011 48.7859 0.9237 49.0762C1.214 49.3689 1.55938 49.6013 1.93991 49.7598C2.32045 49.9184 2.72861 50 3.14084 50C3.55308 50 3.96124 49.9184 4.34178 49.7598C4.72231 49.6013 5.06769 49.3689 5.35799 49.0762L25 29.4009L44.642 49.0762C44.9323 49.3689 45.2777 49.6013 45.6582 49.7598C46.0388 49.9184 46.4469 50 46.8592 50C47.2714 50 47.6796 49.9184 48.0601 49.7598C48.4406 49.6013 48.786 49.3689 49.0763 49.0762C49.369 48.7859 49.6013 48.4405 49.7598 48.0599C49.9184 47.6793 50 47.2711 50 46.8588C50 46.4465 49.9184 46.0383 49.7598 45.6578C49.6013 45.2772 49.369 44.9318 49.0763 44.6414L29.4031 24.9973Z" fill="#003336"/>
</svg>
