<svg width="45" height="40" viewBox="0 0 45 40" fill="none" xmlns="http://www.w3.org/2000/svg">
<path d="M20.1143 8.16415C20.9031 8.05667 21.7 8.0032 22.4981 8.00423C29.6495 8.00423 36.3737 12.582 40.2868 19.9983C39.6883 21.1269 39.0124 22.2218 38.2628 23.2767C38.0248 23.6041 37.8997 23.9863 37.903 24.3761C37.908 24.8124 38.0734 25.2352 38.374 25.5801C38.6746 25.925 39.0939 26.1729 39.5679 26.2862C40.0419 26.3995 40.5446 26.3718 40.9992 26.2074C41.4538 26.043 41.8355 25.7509 42.0859 25.3756C43.1337 23.9122 44.0439 22.3744 44.8071 20.7779C44.9277 20.5285 44.9899 20.2598 44.9899 19.9883C44.9899 19.7168 44.9277 19.4481 44.8071 19.1987C40.2643 9.82333 31.7185 4.0062 22.4981 4.0062C21.4426 4.00148 20.3888 4.08176 19.3496 4.24608C19.0543 4.29071 18.7718 4.38661 18.5181 4.5283C18.2645 4.66999 18.0447 4.8547 17.8714 5.07188C17.6981 5.28906 17.5746 5.53446 17.5079 5.79407C17.4413 6.05368 17.4329 6.32241 17.4831 6.58493C17.5333 6.84744 17.6412 7.09859 17.8006 7.32405C17.96 7.5495 18.1678 7.74484 18.4121 7.89891C18.6564 8.05298 18.9325 8.16276 19.2245 8.22199C19.5166 8.28122 19.8189 8.28873 20.1143 8.24411V8.16415ZM3.8548 0.587892C3.64512 0.401508 3.39619 0.253659 3.12222 0.152788C2.84826 0.0519174 2.55463 0 2.25809 0C1.96155 0 1.66792 0.0519174 1.39396 0.152788C1.11999 0.253659 0.871062 0.401508 0.661379 0.587892C0.237905 0.964314 0 1.47485 0 2.00719C0 2.53953 0.237905 3.05007 0.661379 3.42649L7.63293 9.60344C4.45204 12.3251 1.92043 15.5884 0.189112 19.1987C0.0652812 19.4509 0.00136457 19.7231 0.00136457 19.9983C0.00136457 20.2735 0.0652812 20.5457 0.189112 20.7979C4.73187 30.1733 13.2776 35.9904 22.4981 35.9904C26.5396 35.9656 30.4856 34.8959 33.855 32.9119L41.1414 39.4087C41.3504 39.5961 41.5992 39.7448 41.8732 39.8463C42.1473 39.9478 42.4412 40 42.7381 40C43.035 40 43.3289 39.9478 43.6029 39.8463C43.877 39.7448 44.1257 39.5961 44.3348 39.4087C44.5456 39.2229 44.7129 39.0018 44.827 38.7582C44.9412 38.5146 45 38.2533 45 37.9894C45 37.7255 44.9412 37.4642 44.827 37.2206C44.7129 36.977 44.5456 36.7559 44.3348 36.5701L3.8548 0.587892ZM18.1577 18.9588L23.6675 23.8564C23.2874 23.9533 22.8935 24.0004 22.4981 23.9963C21.3052 23.9963 20.1612 23.5751 19.3177 22.8253C18.4742 22.0755 18.0003 21.0586 18.0003 19.9983C17.9957 19.6468 18.0487 19.2967 18.1577 18.9588ZM22.4981 31.9924C15.3466 31.9924 8.62244 27.4146 4.73187 19.9983C6.18485 17.1472 8.24704 14.5741 10.8039 12.422L14.7844 16.0003C13.8494 17.5171 13.4929 19.2625 13.7685 20.9747C14.044 22.6869 14.9367 24.2735 16.3126 25.4965C17.6885 26.7195 19.4734 27.513 21.3996 27.7579C23.3258 28.0029 25.2894 27.686 26.9959 26.8549L30.5716 29.9934C28.1228 31.2745 25.3394 31.9636 22.4981 31.9924Z" fill="#003336"/>
</svg>
