<svg width="250" height="49" viewBox="0 0 250 49" fill="none" xmlns="http://www.w3.org/2000/svg">
<path d="M24.5 1.32812V45.3281" stroke="#292D54" stroke-width="2" stroke-linecap="round" stroke-linejoin="round"/>
<path d="M34.5 9.32812H19.5C17.6435 9.32812 15.863 10.0656 14.5503 11.3784C13.2375 12.6911 12.5 14.4716 12.5 16.3281C12.5 18.1846 13.2375 19.9651 14.5503 21.2779C15.863 22.5906 17.6435 23.3281 19.5 23.3281H29.5C31.3565 23.3281 33.137 24.0656 34.4497 25.3784C35.7625 26.6911 36.5 28.4716 36.5 30.3281C36.5 32.1846 35.7625 33.9651 34.4497 35.2779C33.137 36.5906 31.3565 37.3281 29.5 37.3281H12.5" stroke="#292D54" stroke-width="2" stroke-linecap="round" stroke-linejoin="round"/>
<g style="mix-blend-mode:multiply">
<path d="M0.5 43.3281C0.5 40.5667 2.73858 38.3281 5.5 38.3281H45.5C48.2614 38.3281 50.5 40.5667 50.5 43.3281C50.5 46.0895 48.2614 48.3281 45.5 48.3281H5.5C2.73858 48.3281 0.5 46.0895 0.5 43.3281Z" fill="#0CAD9A"/>
</g>
<path d="M67.2296 29.8994V17.0194H72.5288C73.6696 17.0194 74.6448 17.2034 75.4544 17.5714C76.2763 17.9394 76.908 18.4669 77.3496 19.1538C77.7912 19.8407 78.012 20.6565 78.012 21.601C78.012 22.5455 77.7912 23.3613 77.3496 24.0482C76.908 24.7351 76.2763 25.2626 75.4544 25.6306C74.6448 25.9986 73.6696 26.1826 72.5288 26.1826H68.5544L69.6216 25.0602V29.8994H67.2296ZM69.6216 25.3178L68.5544 24.1586H72.4184C73.4733 24.1586 74.2645 23.9378 74.792 23.4962C75.3317 23.0423 75.6016 22.4106 75.6016 21.601C75.6016 20.7791 75.3317 20.1474 74.792 19.7058C74.2645 19.2642 73.4733 19.0434 72.4184 19.0434H68.5544L69.6216 17.8658V25.3178ZM86.6957 29.8994V27.9122L86.5669 27.489V24.0114C86.5669 23.3367 86.3645 22.8154 85.9597 22.4474C85.5549 22.0671 84.9415 21.877 84.1197 21.877C83.5677 21.877 83.0218 21.9629 82.4821 22.1346C81.9546 22.3063 81.5069 22.5455 81.1389 22.8522L80.2373 21.1778C80.7647 20.773 81.3903 20.4725 82.1141 20.2762C82.8501 20.0677 83.6106 19.9634 84.3957 19.9634C85.8186 19.9634 86.9165 20.3069 87.6893 20.9938C88.4743 21.6685 88.8669 22.7173 88.8669 24.1402V29.8994H86.6957ZM83.6045 30.0282C82.8685 30.0282 82.2245 29.9055 81.6725 29.6602C81.1205 29.4026 80.6911 29.053 80.3845 28.6114C80.0901 28.1575 79.9429 27.6485 79.9429 27.0842C79.9429 26.5322 80.0717 26.0354 80.3293 25.5938C80.5991 25.1522 81.0346 24.8026 81.6357 24.545C82.2367 24.2874 83.0341 24.1586 84.0277 24.1586H86.8797V25.6858H84.1933C83.4082 25.6858 82.8807 25.8146 82.6109 26.0722C82.341 26.3175 82.2061 26.6242 82.2061 26.9922C82.2061 27.4093 82.3717 27.7405 82.7029 27.9858C83.0341 28.2311 83.4941 28.3538 84.0829 28.3538C84.6471 28.3538 85.1501 28.225 85.5917 27.9674C86.0455 27.7098 86.3706 27.3295 86.5669 26.8266L86.9533 28.2066C86.7325 28.7831 86.3338 29.2309 85.7573 29.5498C85.193 29.8687 84.4754 30.0282 83.6045 30.0282ZM96.8414 33.5978C95.9336 33.5978 95.0443 33.4751 94.1734 33.2298C93.3147 32.9967 92.6094 32.6533 92.0574 32.1994L93.0878 30.4698C93.5171 30.8255 94.0568 31.1077 94.707 31.3162C95.3694 31.537 96.0379 31.6474 96.7126 31.6474C97.792 31.6474 98.5832 31.3959 99.0862 30.893C99.5891 30.4023 99.8406 29.6602 99.8406 28.6666V26.9186L100.025 24.6922L99.951 22.4658V20.0738H102.141V28.409C102.141 30.1877 101.687 31.4941 100.779 32.3282C99.8712 33.1746 98.5587 33.5978 96.8414 33.5978ZM96.547 29.4578C95.6147 29.4578 94.7683 29.2615 94.0078 28.869C93.2595 28.4642 92.6646 27.9061 92.223 27.1946C91.7936 26.4831 91.579 25.649 91.579 24.6922C91.579 23.7477 91.7936 22.9197 92.223 22.2082C92.6646 21.4967 93.2595 20.9447 94.0078 20.5522C94.7683 20.1597 95.6147 19.9634 96.547 19.9634C97.3811 19.9634 98.1294 20.129 98.7918 20.4602C99.4542 20.7914 99.9816 21.3066 100.374 22.0058C100.779 22.705 100.981 23.6005 100.981 24.6922C100.981 25.7839 100.779 26.6855 100.374 27.397C99.9816 28.0962 99.4542 28.6175 98.7918 28.961C98.1294 29.2922 97.3811 29.4578 96.547 29.4578ZM96.8966 27.5074C97.4731 27.5074 97.9883 27.3909 98.4422 27.1578C98.896 26.9125 99.2456 26.5813 99.491 26.1642C99.7486 25.7349 99.8774 25.2442 99.8774 24.6922C99.8774 24.1402 99.7486 23.6557 99.491 23.2386C99.2456 22.8093 98.896 22.4842 98.4422 22.2634C97.9883 22.0303 97.4731 21.9138 96.8966 21.9138C96.32 21.9138 95.7987 22.0303 95.3326 22.2634C94.8787 22.4842 94.523 22.8093 94.2654 23.2386C94.02 23.6557 93.8974 24.1402 93.8974 24.6922C93.8974 25.2442 94.02 25.7349 94.2654 26.1642C94.523 26.5813 94.8787 26.9125 95.3326 27.1578C95.7987 27.3909 96.32 27.5074 96.8966 27.5074ZM111.77 29.8994V27.9122L111.641 27.489V24.0114C111.641 23.3367 111.439 22.8154 111.034 22.4474C110.629 22.0671 110.016 21.877 109.194 21.877C108.642 21.877 108.096 21.9629 107.556 22.1346C107.029 22.3063 106.581 22.5455 106.213 22.8522L105.312 21.1778C105.839 20.773 106.465 20.4725 107.188 20.2762C107.924 20.0677 108.685 19.9634 109.47 19.9634C110.893 19.9634 111.991 20.3069 112.764 20.9938C113.549 21.6685 113.941 22.7173 113.941 24.1402V29.8994H111.77ZM108.679 30.0282C107.943 30.0282 107.299 29.9055 106.747 29.6602C106.195 29.4026 105.765 29.053 105.459 28.6114C105.164 28.1575 105.017 27.6485 105.017 27.0842C105.017 26.5322 105.146 26.0354 105.404 25.5938C105.673 25.1522 106.109 24.8026 106.71 24.545C107.311 24.2874 108.108 24.1586 109.102 24.1586H111.954V25.6858H109.268C108.482 25.6858 107.955 25.8146 107.685 26.0722C107.415 26.3175 107.28 26.6242 107.28 26.9922C107.28 27.4093 107.446 27.7405 107.777 27.9858C108.108 28.2311 108.568 28.3538 109.157 28.3538C109.721 28.3538 110.224 28.225 110.666 27.9674C111.12 27.7098 111.445 27.3295 111.641 26.8266L112.028 28.2066C111.807 28.7831 111.408 29.2309 110.832 29.5498C110.267 29.8687 109.55 30.0282 108.679 30.0282ZM129.847 19.9634C130.632 19.9634 131.325 20.1167 131.926 20.4234C132.539 20.7301 133.017 21.2023 133.361 21.8402C133.704 22.4658 133.876 23.2754 133.876 24.269V29.8994H131.576V24.5634C131.576 23.6925 131.386 23.0423 131.006 22.613C130.625 22.1837 130.08 21.969 129.368 21.969C128.865 21.969 128.417 22.0794 128.025 22.3002C127.645 22.521 127.344 22.8461 127.123 23.2754C126.915 23.7047 126.811 24.2506 126.811 24.913V29.8994H124.511V24.5634C124.511 23.6925 124.32 23.0423 123.94 22.613C123.56 22.1837 123.014 21.969 122.303 21.969C121.8 21.969 121.352 22.0794 120.959 22.3002C120.579 22.521 120.279 22.8461 120.058 23.2754C119.849 23.7047 119.745 24.2506 119.745 24.913V29.8994H117.445V20.0738H119.635V22.6866L119.248 21.9138C119.579 21.2759 120.058 20.7914 120.683 20.4602C121.321 20.129 122.045 19.9634 122.855 19.9634C123.775 19.9634 124.572 20.1903 125.247 20.6442C125.933 21.0981 126.387 21.785 126.608 22.705L125.707 22.3922C126.025 21.6562 126.553 21.0674 127.289 20.6258C128.025 20.1842 128.877 19.9634 129.847 19.9634ZM142.004 30.0282C140.912 30.0282 139.955 29.8135 139.133 29.3842C138.324 28.9426 137.692 28.3415 137.238 27.581C136.796 26.8205 136.576 25.9557 136.576 24.9866C136.576 24.0053 136.79 23.1405 137.22 22.3922C137.661 21.6317 138.262 21.0367 139.023 20.6074C139.796 20.1781 140.673 19.9634 141.654 19.9634C142.611 19.9634 143.463 20.1719 144.212 20.589C144.96 21.0061 145.549 21.5949 145.978 22.3554C146.407 23.1159 146.622 24.0114 146.622 25.0418C146.622 25.1399 146.616 25.2503 146.604 25.373C146.604 25.4957 146.597 25.6122 146.585 25.7226H138.397V24.1954H145.371L144.469 24.6738C144.481 24.1095 144.365 23.6127 144.12 23.1834C143.874 22.7541 143.537 22.4167 143.108 22.1714C142.691 21.9261 142.206 21.8034 141.654 21.8034C141.09 21.8034 140.593 21.9261 140.164 22.1714C139.747 22.4167 139.415 22.7602 139.17 23.2018C138.937 23.6311 138.82 24.1402 138.82 24.729V25.097C138.82 25.6858 138.955 26.2071 139.225 26.661C139.495 27.1149 139.875 27.4645 140.366 27.7098C140.857 27.9551 141.421 28.0778 142.059 28.0778C142.611 28.0778 143.108 27.9919 143.549 27.8202C143.991 27.6485 144.383 27.3786 144.727 27.0106L145.96 28.4274C145.518 28.9426 144.96 29.3413 144.285 29.6234C143.623 29.8933 142.862 30.0282 142.004 30.0282ZM154.958 19.9634C155.744 19.9634 156.443 20.1167 157.056 20.4234C157.682 20.7301 158.172 21.2023 158.528 21.8402C158.884 22.4658 159.062 23.2754 159.062 24.269V29.8994H156.762V24.5634C156.762 23.6925 156.553 23.0423 156.136 22.613C155.731 22.1837 155.161 21.969 154.425 21.969C153.885 21.969 153.407 22.0794 152.99 22.3002C152.573 22.521 152.248 22.8522 152.014 23.2938C151.794 23.7231 151.683 24.269 151.683 24.9314V29.8994H149.383V20.0738H151.573V22.7234L151.186 21.9138C151.53 21.2882 152.027 20.8098 152.677 20.4786C153.339 20.1351 154.1 19.9634 154.958 19.9634ZM166.23 30.0282C165.15 30.0282 164.316 29.7522 163.727 29.2002C163.139 28.6359 162.844 27.8079 162.844 26.7162V17.9026H165.144V26.661C165.144 27.1271 165.261 27.489 165.494 27.7466C165.739 28.0042 166.076 28.133 166.506 28.133C167.021 28.133 167.45 27.9981 167.794 27.7282L168.438 29.3658C168.168 29.5866 167.837 29.7522 167.444 29.8626C167.052 29.973 166.647 30.0282 166.23 30.0282ZM161.225 21.9874V20.1474H167.775V21.9874H161.225ZM174.974 30.0282C173.969 30.0282 173.073 29.8135 172.288 29.3842C171.503 28.9426 170.883 28.3415 170.43 27.581C169.976 26.8205 169.749 25.9557 169.749 24.9866C169.749 24.0053 169.976 23.1405 170.43 22.3922C170.883 21.6317 171.503 21.0367 172.288 20.6074C173.073 20.1781 173.969 19.9634 174.974 19.9634C175.993 19.9634 176.894 20.1781 177.679 20.6074C178.477 21.0367 179.096 21.6255 179.538 22.3738C179.991 23.1221 180.218 23.993 180.218 24.9866C180.218 25.9557 179.991 26.8205 179.538 27.581C179.096 28.3415 178.477 28.9426 177.679 29.3842C176.894 29.8135 175.993 30.0282 174.974 30.0282ZM174.974 28.0594C175.539 28.0594 176.042 27.9367 176.483 27.6914C176.925 27.4461 177.268 27.0903 177.514 26.6242C177.771 26.1581 177.9 25.6122 177.9 24.9866C177.9 24.3487 177.771 23.8029 177.514 23.349C177.268 22.8829 176.925 22.5271 176.483 22.2818C176.042 22.0365 175.545 21.9138 174.993 21.9138C174.429 21.9138 173.926 22.0365 173.484 22.2818C173.055 22.5271 172.711 22.8829 172.454 23.349C172.196 23.8029 172.067 24.3487 172.067 24.9866C172.067 25.6122 172.196 26.1581 172.454 26.6242C172.711 27.0903 173.055 27.4461 173.484 27.6914C173.926 27.9367 174.422 28.0594 174.974 28.0594ZM193.023 30.0282C192.017 30.0282 191.122 29.8135 190.337 29.3842C189.551 28.9426 188.932 28.3415 188.478 27.581C188.024 26.8205 187.797 25.9557 187.797 24.9866C187.797 24.0053 188.024 23.1405 188.478 22.3922C188.932 21.6317 189.551 21.0367 190.337 20.6074C191.122 20.1781 192.017 19.9634 193.023 19.9634C194.041 19.9634 194.943 20.1781 195.728 20.6074C196.525 21.0367 197.145 21.6255 197.586 22.3738C198.04 23.1221 198.267 23.993 198.267 24.9866C198.267 25.9557 198.04 26.8205 197.586 27.581C197.145 28.3415 196.525 28.9426 195.728 29.3842C194.943 29.8135 194.041 30.0282 193.023 30.0282ZM193.023 28.0594C193.587 28.0594 194.09 27.9367 194.532 27.6914C194.973 27.4461 195.317 27.0903 195.562 26.6242C195.82 26.1581 195.949 25.6122 195.949 24.9866C195.949 24.3487 195.82 23.8029 195.562 23.349C195.317 22.8829 194.973 22.5271 194.532 22.2818C194.09 22.0365 193.593 21.9138 193.041 21.9138C192.477 21.9138 191.974 22.0365 191.533 22.2818C191.103 22.5271 190.76 22.8829 190.502 23.349C190.245 23.8029 190.116 24.3487 190.116 24.9866C190.116 25.6122 190.245 26.1581 190.502 26.6242C190.76 27.0903 191.103 27.4461 191.533 27.6914C191.974 27.9367 192.471 28.0594 193.023 28.0594ZM206.593 19.9634C207.379 19.9634 208.078 20.1167 208.691 20.4234C209.317 20.7301 209.807 21.2023 210.163 21.8402C210.519 22.4658 210.697 23.2754 210.697 24.269V29.8994H208.397V24.5634C208.397 23.6925 208.188 23.0423 207.771 22.613C207.366 22.1837 206.796 21.969 206.06 21.969C205.52 21.969 205.042 22.0794 204.625 22.3002C204.208 22.521 203.883 22.8522 203.649 23.2938C203.429 23.7231 203.318 24.269 203.318 24.9314V29.8994H201.018V20.0738H203.208V22.7234L202.821 21.9138C203.165 21.2882 203.662 20.8098 204.312 20.4786C204.974 20.1351 205.735 19.9634 206.593 19.9634ZM214.166 29.8994V16.2466H216.466V29.8994H214.166ZM220.037 29.8994V20.0738H222.337V29.8994H220.037ZM221.196 18.4546C220.767 18.4546 220.411 18.3197 220.129 18.0498C219.859 17.7799 219.724 17.4549 219.724 17.0746C219.724 16.6821 219.859 16.357 220.129 16.0994C220.411 15.8295 220.767 15.6946 221.196 15.6946C221.626 15.6946 221.975 15.8234 222.245 16.081C222.527 16.3263 222.668 16.6391 222.668 17.0194C222.668 17.4242 222.533 17.7677 222.264 18.0498C221.994 18.3197 221.638 18.4546 221.196 18.4546ZM231.483 19.9634C232.268 19.9634 232.967 20.1167 233.581 20.4234C234.206 20.7301 234.697 21.2023 235.053 21.8402C235.408 22.4658 235.586 23.2754 235.586 24.269V29.8994H233.286V24.5634C233.286 23.6925 233.078 23.0423 232.661 22.613C232.256 22.1837 231.685 21.969 230.949 21.969C230.41 21.969 229.931 22.0794 229.514 22.3002C229.097 22.521 228.772 22.8522 228.539 23.2938C228.318 23.7231 228.208 24.269 228.208 24.9314V29.8994H225.908V20.0738H228.097V22.7234L227.711 21.9138C228.055 21.2882 228.551 20.8098 229.201 20.4786C229.864 20.1351 230.624 19.9634 231.483 19.9634ZM243.692 30.0282C242.601 30.0282 241.644 29.8135 240.822 29.3842C240.012 28.9426 239.381 28.3415 238.927 27.581C238.485 26.8205 238.264 25.9557 238.264 24.9866C238.264 24.0053 238.479 23.1405 238.908 22.3922C239.35 21.6317 239.951 21.0367 240.712 20.6074C241.484 20.1781 242.361 19.9634 243.343 19.9634C244.3 19.9634 245.152 20.1719 245.9 20.589C246.649 21.0061 247.237 21.5949 247.667 22.3554C248.096 23.1159 248.311 24.0114 248.311 25.0418C248.311 25.1399 248.305 25.2503 248.292 25.373C248.292 25.4957 248.286 25.6122 248.274 25.7226H240.086V24.1954H247.06L246.158 24.6738C246.17 24.1095 246.054 23.6127 245.808 23.1834C245.563 22.7541 245.226 22.4167 244.796 22.1714C244.379 21.9261 243.895 21.8034 243.343 21.8034C242.778 21.8034 242.282 21.9261 241.852 22.1714C241.435 22.4167 241.104 22.7602 240.859 23.2018C240.626 23.6311 240.509 24.1402 240.509 24.729V25.097C240.509 25.6858 240.644 26.2071 240.914 26.661C241.184 27.1149 241.564 27.4645 242.055 27.7098C242.545 27.9551 243.11 28.0778 243.748 28.0778C244.3 28.0778 244.796 27.9919 245.238 27.8202C245.68 27.6485 246.072 27.3786 246.416 27.0106L247.648 28.4274C247.207 28.9426 246.649 29.3413 245.974 29.6234C245.312 29.8933 244.551 30.0282 243.692 30.0282Z" fill="#003336"/>
</svg>
