<svg width="45" height="35" viewBox="0 0 45 35" fill="none" xmlns="http://www.w3.org/2000/svg">
<path d="M44.8298 16.6872C41.1435 8.3825 32.8127 0 22.5 0C12.1873 0 3.85649 8.3825 0.170167 16.6872C0.0580288 16.9424 0 17.2196 0 17.5C0 17.7804 0.0580288 18.0576 0.170167 18.3128C3.85649 26.6175 12.1873 35 22.5 35C32.8127 35 41.1435 26.6175 44.8298 18.3128C44.942 18.0576 45 17.7804 45 17.5C45 17.2196 44.942 16.9424 44.8298 16.6872ZM22.5 31.1111C14.2292 31.1111 7.22594 24.2044 3.95587 17.5C7.22594 10.7956 14.2292 3.88889 22.5 3.88889C30.7708 3.88889 37.7741 10.7956 41.0441 17.5C37.7741 24.2044 30.7708 31.1111 22.5 31.1111Z" fill="#003336"/>
<path d="M22.5 7.77734C20.6457 7.77734 18.8331 8.34754 17.2914 9.41583C15.7496 10.4841 14.548 12.0025 13.8384 13.779C13.1288 15.5555 12.9432 17.5104 13.3049 19.3963C13.6666 21.2822 14.5595 23.0145 15.8707 24.3742C17.1818 25.7339 18.8523 26.6598 20.6709 27.035C22.4896 27.4101 24.3746 27.2176 26.0877 26.4817C27.8008 25.7459 29.265 24.4998 30.2951 22.9009C31.3253 21.3021 31.8751 19.4224 31.8751 17.4996C31.8722 14.922 30.8835 12.4509 29.1259 10.6283C27.3684 8.80573 24.9855 7.78043 22.5 7.77734ZM22.5 23.3329C21.3874 23.3329 20.2999 22.9908 19.3748 22.3498C18.4498 21.7088 17.7288 20.7978 17.303 19.7319C16.8773 18.666 16.7659 17.4931 16.9829 16.3615C17.2 15.23 17.7357 14.1906 18.5224 13.3748C19.3091 12.559 20.3114 12.0034 21.4025 11.7783C22.4937 11.5532 23.6247 11.6688 24.6526 12.1103C25.6804 12.5518 26.559 13.2995 27.1771 14.2587C27.7952 15.218 28.1251 16.3458 28.1251 17.4996C28.1251 19.0467 27.5324 20.5304 26.4775 21.6244C25.4226 22.7183 23.9918 23.3329 22.5 23.3329Z" fill="#003336"/>
</svg>
