<svg width="271" height="50" viewBox="0 0 271 50" fill="none" xmlns="http://www.w3.org/2000/svg">
<path d="M6.5 24.0781H42.5" stroke="#292D54" stroke-width="2" stroke-linecap="round" stroke-linejoin="round"/>
<path d="M6.5 12.0781H42.5" stroke="#292D54" stroke-width="2" stroke-linecap="round" stroke-linejoin="round"/>
<path d="M6.5 36.0781H42.5" stroke="#292D54" stroke-width="2" stroke-linecap="round" stroke-linejoin="round"/>
<g style="mix-blend-mode:multiply">
<path d="M0.5 44.0781C0.5 41.3167 2.73858 39.0781 5.5 39.0781H45.5C48.2614 39.0781 50.5 41.3167 50.5 44.0781C50.5 46.8395 48.2614 49.0781 45.5 49.0781H5.5C2.73858 49.0781 0.5 46.8395 0.5 44.0781Z" fill="#0CAD9A"/>
</g>
<path d="M67.2296 30.6494V17.7694H72.5288C73.6696 17.7694 74.6448 17.9534 75.4544 18.3214C76.2763 18.6894 76.908 19.2169 77.3496 19.9038C77.7912 20.5907 78.012 21.4065 78.012 22.351C78.012 23.2955 77.7912 24.1113 77.3496 24.7982C76.908 25.4851 76.2763 26.0126 75.4544 26.3806C74.6448 26.7486 73.6696 26.9326 72.5288 26.9326H68.5544L69.6216 25.8102V30.6494H67.2296ZM69.6216 26.0678L68.5544 24.9086H72.4184C73.4733 24.9086 74.2645 24.6878 74.792 24.2462C75.3317 23.7923 75.6016 23.1606 75.6016 22.351C75.6016 21.5291 75.3317 20.8974 74.792 20.4558C74.2645 20.0142 73.4733 19.7934 72.4184 19.7934H68.5544L69.6216 18.6158V26.0678ZM80.6421 30.6494V20.8238H82.8317V23.5286L82.5741 22.7374C82.8685 22.075 83.3285 21.5721 83.9541 21.2286C84.5919 20.8851 85.3831 20.7134 86.3277 20.7134V22.903C86.2295 22.8785 86.1375 22.8662 86.0517 22.8662C85.9658 22.8539 85.8799 22.8478 85.7941 22.8478C84.9231 22.8478 84.2301 23.1054 83.7149 23.6206C83.1997 24.1235 82.9421 24.8779 82.9421 25.8838V30.6494H80.6421ZM93.1569 30.7782C92.1511 30.7782 91.2556 30.5635 90.4705 30.1342C89.6855 29.6926 89.066 29.0915 88.6121 28.331C88.1583 27.5705 87.9313 26.7057 87.9313 25.7366C87.9313 24.7553 88.1583 23.8905 88.6121 23.1422C89.066 22.3817 89.6855 21.7867 90.4705 21.3574C91.2556 20.9281 92.1511 20.7134 93.1569 20.7134C94.1751 20.7134 95.0767 20.9281 95.8617 21.3574C96.6591 21.7867 97.2785 22.3755 97.7201 23.1238C98.174 23.8721 98.4009 24.743 98.4009 25.7366C98.4009 26.7057 98.174 27.5705 97.7201 28.331C97.2785 29.0915 96.6591 29.6926 95.8617 30.1342C95.0767 30.5635 94.1751 30.7782 93.1569 30.7782ZM93.1569 28.8094C93.7212 28.8094 94.2241 28.6867 94.6657 28.4414C95.1073 28.1961 95.4508 27.8403 95.6961 27.3742C95.9537 26.9081 96.0825 26.3622 96.0825 25.7366C96.0825 25.0987 95.9537 24.5529 95.6961 24.099C95.4508 23.6329 95.1073 23.2771 94.6657 23.0318C94.2241 22.7865 93.7273 22.6638 93.1753 22.6638C92.6111 22.6638 92.1081 22.7865 91.6665 23.0318C91.2372 23.2771 90.8937 23.6329 90.6361 24.099C90.3785 24.5529 90.2497 25.0987 90.2497 25.7366C90.2497 26.3622 90.3785 26.9081 90.6361 27.3742C90.8937 27.8403 91.2372 28.1961 91.6665 28.4414C92.1081 28.6867 92.6049 28.8094 93.1569 28.8094ZM106.728 20.7134C107.513 20.7134 108.212 20.8667 108.825 21.1734C109.451 21.4801 109.941 21.9523 110.297 22.5902C110.653 23.2158 110.831 24.0254 110.831 25.019V30.6494H108.531V25.3134C108.531 24.4425 108.322 23.7923 107.905 23.363C107.5 22.9337 106.93 22.719 106.194 22.719C105.654 22.719 105.176 22.8294 104.759 23.0502C104.342 23.271 104.017 23.6022 103.784 24.0438C103.563 24.4731 103.452 25.019 103.452 25.6814V30.6494H101.152V20.8238H103.342V23.4734L102.956 22.6638C103.299 22.0382 103.796 21.5598 104.446 21.2286C105.108 20.8851 105.869 20.7134 106.728 20.7134ZM117.999 30.7782C116.919 30.7782 116.085 30.5022 115.496 29.9502C114.908 29.3859 114.613 28.5579 114.613 27.4662V18.6526H116.913V27.411C116.913 27.8771 117.03 28.239 117.263 28.4966C117.508 28.7542 117.845 28.883 118.275 28.883C118.79 28.883 119.219 28.7481 119.563 28.4782L120.207 30.1158C119.937 30.3366 119.606 30.5022 119.213 30.6126C118.821 30.723 118.416 30.7782 117.999 30.7782ZM112.994 22.7374V20.8974H119.544V22.7374H112.994ZM126.743 30.7782C125.738 30.7782 124.842 30.5635 124.057 30.1342C123.272 29.6926 122.652 29.0915 122.199 28.331C121.745 27.5705 121.518 26.7057 121.518 25.7366C121.518 24.7553 121.745 23.8905 122.199 23.1422C122.652 22.3817 123.272 21.7867 124.057 21.3574C124.842 20.9281 125.738 20.7134 126.743 20.7134C127.762 20.7134 128.663 20.9281 129.448 21.3574C130.246 21.7867 130.865 22.3755 131.307 23.1238C131.76 23.8721 131.987 24.743 131.987 25.7366C131.987 26.7057 131.76 27.5705 131.307 28.331C130.865 29.0915 130.246 29.6926 129.448 30.1342C128.663 30.5635 127.762 30.7782 126.743 30.7782ZM126.743 28.8094C127.308 28.8094 127.811 28.6867 128.252 28.4414C128.694 28.1961 129.037 27.8403 129.283 27.3742C129.54 26.9081 129.669 26.3622 129.669 25.7366C129.669 25.0987 129.54 24.5529 129.283 24.099C129.037 23.6329 128.694 23.2771 128.252 23.0318C127.811 22.7865 127.314 22.6638 126.762 22.6638C126.198 22.6638 125.695 22.7865 125.253 23.0318C124.824 23.2771 124.48 23.6329 124.223 24.099C123.965 24.5529 123.836 25.0987 123.836 25.7366C123.836 26.3622 123.965 26.9081 124.223 27.3742C124.48 27.8403 124.824 28.1961 125.253 28.4414C125.695 28.6867 126.191 28.8094 126.743 28.8094ZM138.775 30.6494L144.571 17.7694H146.926L152.741 30.6494H150.238L145.252 19.039H146.209L141.241 30.6494H138.775ZM141.443 27.6686L142.087 25.7918H149.042L149.686 27.6686H141.443ZM158.319 30.7782C157.239 30.7782 156.405 30.5022 155.816 29.9502C155.227 29.3859 154.933 28.5579 154.933 27.4662V18.6526H157.233V27.411C157.233 27.8771 157.349 28.239 157.583 28.4966C157.828 28.7542 158.165 28.883 158.595 28.883C159.11 28.883 159.539 28.7481 159.883 28.4782L160.527 30.1158C160.257 30.3366 159.925 30.5022 159.533 30.6126C159.14 30.723 158.736 30.7782 158.319 30.7782ZM153.314 22.7374V20.8974H159.864V22.7374H153.314ZM167.266 30.7782C166.174 30.7782 165.217 30.5635 164.395 30.1342C163.586 29.6926 162.954 29.0915 162.5 28.331C162.058 27.5705 161.838 26.7057 161.838 25.7366C161.838 24.7553 162.052 23.8905 162.482 23.1422C162.923 22.3817 163.524 21.7867 164.285 21.3574C165.058 20.9281 165.935 20.7134 166.916 20.7134C167.873 20.7134 168.725 20.9219 169.474 21.339C170.222 21.7561 170.811 22.3449 171.24 23.1054C171.669 23.8659 171.884 24.7614 171.884 25.7918C171.884 25.8899 171.878 26.0003 171.866 26.123C171.866 26.2457 171.859 26.3622 171.847 26.4726H163.659V24.9454H170.633L169.731 25.4238C169.743 24.8595 169.627 24.3627 169.382 23.9334C169.136 23.5041 168.799 23.1667 168.37 22.9214C167.952 22.6761 167.468 22.5534 166.916 22.5534C166.352 22.5534 165.855 22.6761 165.426 22.9214C165.008 23.1667 164.677 23.5102 164.432 23.9518C164.199 24.3811 164.082 24.8902 164.082 25.479V25.847C164.082 26.4358 164.217 26.9571 164.487 27.411C164.757 27.8649 165.137 28.2145 165.628 28.4598C166.119 28.7051 166.683 28.8278 167.321 28.8278C167.873 28.8278 168.37 28.7419 168.811 28.5702C169.253 28.3985 169.645 28.1286 169.989 27.7606L171.222 29.1774C170.78 29.6926 170.222 30.0913 169.547 30.3734C168.885 30.6433 168.124 30.7782 167.266 30.7782ZM180.22 20.7134C181.005 20.7134 181.705 20.8667 182.318 21.1734C182.944 21.4801 183.434 21.9523 183.79 22.5902C184.146 23.2158 184.324 24.0254 184.324 25.019V30.6494H182.024V25.3134C182.024 24.4425 181.815 23.7923 181.398 23.363C180.993 22.9337 180.423 22.719 179.687 22.719C179.147 22.719 178.669 22.8294 178.252 23.0502C177.835 23.271 177.509 23.6022 177.276 24.0438C177.056 24.4731 176.945 25.019 176.945 25.6814V30.6494H174.645V20.8238H176.835V23.4734L176.448 22.6638C176.792 22.0382 177.289 21.5598 177.939 21.2286C178.601 20.8851 179.362 20.7134 180.22 20.7134ZM191.97 30.7782C191.025 30.7782 190.173 30.5697 189.412 30.1526C188.664 29.7233 188.075 29.1345 187.646 28.3862C187.216 27.6379 187.002 26.7547 187.002 25.7366C187.002 24.7185 187.216 23.8353 187.646 23.087C188.075 22.3387 188.664 21.7561 189.412 21.339C190.173 20.9219 191.025 20.7134 191.97 20.7134C192.792 20.7134 193.528 20.8974 194.178 21.2654C194.828 21.6211 195.343 22.167 195.723 22.903C196.104 23.639 196.294 24.5835 196.294 25.7366C196.294 26.8774 196.11 27.8219 195.742 28.5702C195.374 29.3062 194.865 29.8582 194.214 30.2262C193.564 30.5942 192.816 30.7782 191.97 30.7782ZM192.246 28.8094C192.798 28.8094 193.288 28.6867 193.718 28.4414C194.159 28.1961 194.509 27.8403 194.766 27.3742C195.036 26.9081 195.171 26.3622 195.171 25.7366C195.171 25.0987 195.036 24.5529 194.766 24.099C194.509 23.6329 194.159 23.2771 193.718 23.0318C193.288 22.7865 192.798 22.6638 192.246 22.6638C191.694 22.6638 191.197 22.7865 190.755 23.0318C190.326 23.2771 189.976 23.6329 189.706 24.099C189.449 24.5529 189.32 25.0987 189.32 25.7366C189.32 26.3622 189.449 26.9081 189.706 27.3742C189.976 27.8403 190.326 28.1961 190.755 28.4414C191.197 28.6867 191.694 28.8094 192.246 28.8094ZM195.226 30.6494V28.331L195.318 25.7182L195.134 23.1054V16.9966H197.416V30.6494H195.226ZM200.995 30.6494V20.8238H203.295V30.6494H200.995ZM202.154 19.2046C201.725 19.2046 201.369 19.0697 201.087 18.7998C200.817 18.5299 200.682 18.2049 200.682 17.8246C200.682 17.4321 200.817 17.107 201.087 16.8494C201.369 16.5795 201.725 16.4446 202.154 16.4446C202.584 16.4446 202.933 16.5734 203.203 16.831C203.485 17.0763 203.626 17.3891 203.626 17.7694C203.626 18.1742 203.492 18.5177 203.222 18.7998C202.952 19.0697 202.596 19.2046 202.154 19.2046ZM219.268 20.7134C220.053 20.7134 220.746 20.8667 221.347 21.1734C221.96 21.4801 222.439 21.9523 222.782 22.5902C223.126 23.2158 223.297 24.0254 223.297 25.019V30.6494H220.997V25.3134C220.997 24.4425 220.807 23.7923 220.427 23.363C220.047 22.9337 219.501 22.719 218.789 22.719C218.286 22.719 217.839 22.8294 217.446 23.0502C217.066 23.271 216.765 23.5961 216.544 24.0254C216.336 24.4547 216.232 25.0006 216.232 25.663V30.6494H213.932V25.3134C213.932 24.4425 213.742 23.7923 213.361 23.363C212.981 22.9337 212.435 22.719 211.724 22.719C211.221 22.719 210.773 22.8294 210.38 23.0502C210 23.271 209.7 23.5961 209.479 24.0254C209.27 24.4547 209.166 25.0006 209.166 25.663V30.6494H206.866V20.8238H209.056V23.4366L208.669 22.6638C209 22.0259 209.479 21.5414 210.104 21.2102C210.742 20.879 211.466 20.7134 212.276 20.7134C213.196 20.7134 213.993 20.9403 214.668 21.3942C215.355 21.8481 215.808 22.535 216.029 23.455L215.128 23.1422C215.447 22.4062 215.974 21.8174 216.71 21.3758C217.446 20.9342 218.299 20.7134 219.268 20.7134ZM231.425 30.7782C230.333 30.7782 229.376 30.5635 228.554 30.1342C227.745 29.6926 227.113 29.0915 226.659 28.331C226.218 27.5705 225.997 26.7057 225.997 25.7366C225.997 24.7553 226.211 23.8905 226.641 23.1422C227.082 22.3817 227.683 21.7867 228.444 21.3574C229.217 20.9281 230.094 20.7134 231.075 20.7134C232.032 20.7134 232.884 20.9219 233.633 21.339C234.381 21.7561 234.97 22.3449 235.399 23.1054C235.828 23.8659 236.043 24.7614 236.043 25.7918C236.043 25.8899 236.037 26.0003 236.025 26.123C236.025 26.2457 236.019 26.3622 236.006 26.4726H227.818V24.9454H234.792L233.89 25.4238C233.903 24.8595 233.786 24.3627 233.541 23.9334C233.295 23.5041 232.958 23.1667 232.529 22.9214C232.112 22.6761 231.627 22.5534 231.075 22.5534C230.511 22.5534 230.014 22.6761 229.585 22.9214C229.168 23.1667 228.836 23.5102 228.591 23.9518C228.358 24.3811 228.242 24.8902 228.242 25.479V25.847C228.242 26.4358 228.376 26.9571 228.646 27.411C228.916 27.8649 229.296 28.2145 229.787 28.4598C230.278 28.7051 230.842 28.8278 231.48 28.8278C232.032 28.8278 232.529 28.7419 232.97 28.5702C233.412 28.3985 233.804 28.1286 234.148 27.7606L235.381 29.1774C234.939 29.6926 234.381 30.0913 233.706 30.3734C233.044 30.6433 232.283 30.7782 231.425 30.7782ZM244.38 20.7134C245.165 20.7134 245.864 20.8667 246.477 21.1734C247.103 21.4801 247.593 21.9523 247.949 22.5902C248.305 23.2158 248.483 24.0254 248.483 25.019V30.6494H246.183V25.3134C246.183 24.4425 245.974 23.7923 245.557 23.363C245.152 22.9337 244.582 22.719 243.846 22.719C243.306 22.719 242.828 22.8294 242.411 23.0502C241.994 23.271 241.669 23.6022 241.436 24.0438C241.215 24.4731 241.104 25.019 241.104 25.6814V30.6494H238.804V20.8238H240.994V23.4734L240.608 22.6638C240.951 22.0382 241.448 21.5598 242.098 21.2286C242.76 20.8851 243.521 20.7134 244.38 20.7134ZM255.651 30.7782C254.571 30.7782 253.737 30.5022 253.149 29.9502C252.56 29.3859 252.265 28.5579 252.265 27.4662V18.6526H254.565V27.411C254.565 27.8771 254.682 28.239 254.915 28.4966C255.16 28.7542 255.498 28.883 255.927 28.883C256.442 28.883 256.871 28.7481 257.215 28.4782L257.859 30.1158C257.589 30.3366 257.258 30.5022 256.865 30.6126C256.473 30.723 256.068 30.7782 255.651 30.7782ZM250.646 22.7374V20.8974H257.197V22.7374H250.646ZM264.396 30.7782C263.39 30.7782 262.494 30.5635 261.709 30.1342C260.924 29.6926 260.305 29.0915 259.851 28.331C259.397 27.5705 259.17 26.7057 259.17 25.7366C259.17 24.7553 259.397 23.8905 259.851 23.1422C260.305 22.3817 260.924 21.7867 261.709 21.3574C262.494 20.9281 263.39 20.7134 264.396 20.7134C265.414 20.7134 266.315 20.9281 267.1 21.3574C267.898 21.7867 268.517 22.3755 268.959 23.1238C269.413 23.8721 269.64 24.743 269.64 25.7366C269.64 26.7057 269.413 27.5705 268.959 28.331C268.517 29.0915 267.898 29.6926 267.1 30.1342C266.315 30.5635 265.414 30.7782 264.396 30.7782ZM264.396 28.8094C264.96 28.8094 265.463 28.6867 265.904 28.4414C266.346 28.1961 266.689 27.8403 266.935 27.3742C267.192 26.9081 267.321 26.3622 267.321 25.7366C267.321 25.0987 267.192 24.5529 266.935 24.099C266.689 23.6329 266.346 23.2771 265.904 23.0318C265.463 22.7865 264.966 22.6638 264.414 22.6638C263.85 22.6638 263.347 22.7865 262.905 23.0318C262.476 23.2771 262.132 23.6329 261.875 24.099C261.617 24.5529 261.488 25.0987 261.488 25.7366C261.488 26.3622 261.617 26.9081 261.875 27.3742C262.132 27.8403 262.476 28.1961 262.905 28.4414C263.347 28.6867 263.844 28.8094 264.396 28.8094Z" fill="#003336"/>
</svg>
