<svg width="50" height="50" viewBox="0 0 50 50" fill="none" xmlns="http://www.w3.org/2000/svg">
<g clip-path="url(#clip0_10_220)">
<path d="M33.3334 33.3333L25.0001 25L16.6667 33.3333" stroke="#003336" stroke-width="2" stroke-linecap="round" stroke-linejoin="round"/>
<path d="M25 25V43.75" stroke="#003336" stroke-width="2" stroke-linecap="round" stroke-linejoin="round"/>
<path d="M42.4792 38.3123C44.5112 37.2045 46.1164 35.4516 47.0414 33.3302C47.9665 31.2089 48.1588 28.8398 47.588 26.597C47.0171 24.3542 45.7156 22.3654 43.8889 20.9444C42.0622 19.5235 39.8143 18.7513 37.5 18.7498H34.875C34.2444 16.3107 33.0691 14.0463 31.4374 12.1268C29.8057 10.2074 27.7601 8.68278 25.4544 7.6677C23.1487 6.65261 20.6429 6.17343 18.1253 6.26618C15.6077 6.35894 13.1439 7.02122 10.9192 8.20323C8.69439 9.38524 6.76652 11.0562 5.2805 13.0906C3.79448 15.1249 2.78898 17.4696 2.33958 19.9485C1.89018 22.4274 2.00859 24.9759 2.6859 27.4024C3.36321 29.8289 4.58179 32.0703 6.25004 33.9581" stroke="#003336" stroke-width="2" stroke-linecap="round" stroke-linejoin="round"/>
<path d="M33.3334 33.3333L25.0001 25L16.6667 33.3333" stroke="#003336" stroke-width="2" stroke-linecap="round" stroke-linejoin="round"/>
<g style="mix-blend-mode:multiply">
<path d="M0.5 43.7656C0.5 41.0042 2.73858 38.7656 5.5 38.7656H45.5C48.2614 38.7656 50.5 41.0042 50.5 43.7656C50.5 46.527 48.2614 48.7656 45.5 48.7656H5.5C2.73858 48.7656 0.5 46.527 0.5 43.7656Z" fill="#0CAD9A"/>
</g>
</g>
<defs>
<clipPath id="clip0_10_220">
<rect width="50" height="50" fill="white"/>
</clipPath>
</defs>
</svg>
