<svg width="316" height="114" viewBox="0 0 316 114" fill="none" xmlns="http://www.w3.org/2000/svg">
<g filter="url(#filter0_d_14_614)">
<path d="M41.3674 58.7328C40.3133 58.8608 39.541 59.8034 39.7209 60.85C40.0545 62.7912 40.6381 64.6664 41.4551 66.413C42.5345 68.7203 43.9999 70.7579 45.7679 72.4094C47.5359 74.0609 49.5717 75.2941 51.7592 76.0384C53.9467 76.7828 56.2429 77.0238 58.5169 76.7477C60.7908 76.4716 62.9979 75.6838 65.0121 74.4292C67.0264 73.1747 68.8083 71.4779 70.2562 69.4359C71.704 67.3939 72.7895 65.0466 73.4506 62.528C74.1874 59.9517 74.0764 58.2839 73.6943 56.384C73.5246 55.5407 72.7284 54.9787 71.8725 55.0644C70.9422 55.1576 70.2681 55.982 70.2601 56.9169C70.2476 58.3801 70.0547 59.838 69.6849 61.2466C69.1733 63.1958 68.3332 65.0125 67.2127 66.5929C66.0921 68.1733 64.713 69.4864 63.1541 70.4574C61.5953 71.4283 59.8871 72.038 58.1272 72.2517C56.3673 72.4654 54.5902 72.2789 52.8972 71.7028C51.2043 71.1267 49.6287 70.1723 48.2604 68.8942C46.8921 67.616 45.7579 66.039 44.9225 64.2534C44.3686 63.0691 43.9532 61.8085 43.6852 60.504C43.4608 59.412 42.4741 58.5984 41.3674 58.7328Z" fill="#003336"/>
<path d="M39.5823 59.9146L39.476 59.0146L39.4272 58.6017C39.3889 58.2775 39.3778 57.9507 39.3942 57.6246C39.5032 55.4447 40.7399 53.4789 42.6579 52.4371L44.0701 51.67C44.7105 51.3221 45.5013 51.4206 46.0367 51.9149L46.2282 52.0916C46.9906 52.7954 46.8359 54.0401 45.9244 54.5359L45.8841 54.5578C44.5619 55.277 43.6916 56.6144 43.5697 58.1146L43.5697 59.9146L39.5823 59.9146Z" fill="#003336"/>
<path d="M72.5697 60.7147C73.3029 60.4703 73.8307 59.8266 73.9266 59.0596L73.9697 58.7147L73.9697 57.3147C73.7166 55.4168 72.6217 53.7339 70.989 52.7335L69.399 51.7592C68.7618 51.3688 67.9428 51.4492 67.3938 51.9561L67.2672 52.0729C66.4889 52.7913 66.6491 54.063 67.5795 54.5691C68.9057 55.2905 69.7994 56.6147 69.9697 58.1147L69.9697 60.1147L72.5697 60.7147Z" fill="#003336"/>
<rect x="53.9697" y="35.7148" width="5.2" height="16" rx="2.6" fill="url(#paint0_linear_14_614)"/>
<rect x="48.7695" y="46.1147" width="5.2" height="16" rx="2.6" transform="rotate(-90 48.7695 46.1147)" fill="url(#paint1_linear_14_614)"/>
<rect x="54.7695" y="72.9146" width="3.6" height="20.4" fill="#003336"/>
<circle cx="88.3697" cy="46.9146" r="2.5" stroke="#003336" stroke-width="3.8"/>
<path d="M94.8024 53.2763C95.7862 53.1908 96.6572 53.9193 96.6984 54.9059C97.0661 63.7013 94.5306 72.3941 89.456 79.6301C84.0385 87.3553 76.0733 92.9263 66.959 95.365C57.8447 97.8038 48.1637 96.9544 39.6159 92.9661C31.068 88.9778 24.1996 82.1054 20.2164 73.5555C16.2333 65.0056 15.3901 55.3247 17.8348 46.2125C20.2795 37.1002 25.8559 29.1391 33.5849 23.7268C41.3139 18.3145 50.7016 15.7969 60.0997 16.6161C68.9028 17.3835 77.188 21.0325 83.6845 26.9711C84.4133 27.6374 84.4109 28.7726 83.7129 29.471C83.0149 30.1693 81.8857 30.1659 81.1541 29.5029C75.2541 24.1565 67.7537 20.8718 59.7878 20.1774C51.2269 19.4312 42.6754 21.7245 35.6348 26.6547C28.5943 31.5849 23.5146 38.8369 21.2877 47.1375C19.0607 55.438 19.8288 64.2566 23.4572 72.0449C27.0855 79.8332 33.3421 86.0934 41.1286 89.7265C48.9151 93.3596 57.7337 94.1333 66.0361 91.9118C74.3386 89.6902 81.5943 84.6155 86.5292 77.5785C91.1214 71.0303 93.431 63.1725 93.1328 55.2145C93.0958 54.2282 93.8192 53.3618 94.8024 53.2763Z" fill="#003336"/>
<path d="M85.6121 54.1514C86.7117 54.0569 87.687 54.8712 87.7118 55.9746C87.8628 62.676 85.8234 69.2613 81.8743 74.7149C77.534 80.7087 71.1774 84.9342 63.9689 86.6172C56.7604 88.3002 49.1828 87.3281 42.624 83.8789C36.0652 80.4297 30.9645 74.7344 28.2562 67.8363C25.5479 60.9381 25.4134 53.299 27.8772 46.3183C30.3411 39.3377 35.2384 33.4827 41.672 29.8262C48.1056 26.1696 55.6448 24.9561 62.9084 26.4081C69.517 27.7291 75.495 31.176 79.9453 36.1941C80.6781 37.0204 80.5159 38.2817 79.6439 38.9593C78.772 39.6368 77.5213 39.4735 76.7808 38.6546C72.9274 34.3932 67.7952 31.4656 62.1305 30.3332C55.8106 29.0699 49.251 30.1257 43.6533 33.3071C38.0557 36.4886 33.7947 41.5828 31.651 47.6564C29.5073 53.7301 29.6243 60.3766 31.9807 66.3785C34.3371 72.3803 38.7751 77.3356 44.4817 80.3366C50.1882 83.3377 56.7813 84.1835 63.0531 82.7191C69.325 81.2548 74.8557 77.5784 78.6321 72.3633C82.0158 67.6905 83.7881 62.0627 83.7157 56.3239C83.7018 55.2178 84.51 54.2461 85.6121 54.1514Z" fill="url(#paint2_linear_14_614)"/>
<path d="M91.2165 54.9645C91.5535 55.8671 91.0985 56.8883 90.1536 57.0763C88.831 57.3394 87.4664 57.3449 86.136 57.0862C84.2351 56.7165 82.4799 55.8223 81.069 54.5045C79.658 53.1868 78.6475 51.498 78.1517 49.6292C77.6559 47.7604 77.6945 45.7861 78.2633 43.9295C78.832 42.0728 79.9082 40.4079 81.3701 39.1229C82.832 37.8379 84.6214 36.984 86.5359 36.6579C88.4505 36.3318 90.4138 36.5463 92.204 37.2774C93.4472 37.785 94.5725 38.5277 95.5213 39.4592C96.2157 40.1409 96.0269 41.2553 95.2374 41.8242C94.4464 42.3942 93.3535 42.1907 92.6001 41.5717C92.0755 41.1406 91.4866 40.7883 90.851 40.5288C89.6662 40.045 88.3667 39.903 87.0995 40.1188C85.8323 40.3347 84.648 40.8998 83.6804 41.7503C82.7128 42.6008 82.0005 43.7028 81.6241 44.9316C81.2476 46.1605 81.2221 47.4672 81.5502 48.7041C81.8784 49.941 82.5472 51.0588 83.4811 51.9309C84.415 52.8031 85.5766 53.395 86.8348 53.6397C87.5153 53.772 88.2094 53.7999 88.8936 53.7253C89.8586 53.6202 90.877 54.0551 91.2165 54.9645Z" fill="#003336"/>
</g>
<path d="M117.856 79.528C115.424 79.528 113.248 79 111.328 77.944C109.424 76.888 107.92 75.392 106.816 73.456C105.712 71.52 105.16 69.24 105.16 66.616C105.16 64.36 105.648 62.264 106.624 60.328C107.616 58.392 109.04 56.832 110.896 55.648C112.768 54.448 115.016 53.848 117.64 53.848C119.368 53.848 120.864 54.168 122.128 54.808C123.408 55.432 124.392 56.28 125.08 57.352C125.784 58.424 126.136 59.632 126.136 60.976C126.136 62.928 125.424 64.496 124 65.68C122.576 66.864 120.632 67.792 118.168 68.464C115.72 69.12 112.944 69.664 109.84 70.096C110.16 71.312 110.728 72.384 111.544 73.312C112.36 74.224 113.32 74.936 114.424 75.448C115.528 75.96 116.672 76.216 117.856 76.216C119.52 76.216 121.048 75.904 122.44 75.28C123.848 74.64 124.952 73.864 125.752 72.952L127.744 75.496C126.544 76.728 125.072 77.712 123.328 78.448C121.6 79.168 119.776 79.528 117.856 79.528ZM109.552 67.24C112.016 66.888 114.2 66.464 116.104 65.968C118.008 65.472 119.504 64.824 120.592 64.024C121.68 63.208 122.224 62.16 122.224 60.88C122.224 59.792 121.824 58.912 121.024 58.24C120.24 57.568 119.12 57.232 117.664 57.232C116.336 57.232 115.04 57.56 113.776 58.216C112.528 58.856 111.496 59.832 110.68 61.144C109.88 62.44 109.48 64.08 109.48 66.064C109.48 66.464 109.504 66.856 109.552 67.24ZM148.952 79.528C145.432 79.528 142.408 78.768 139.88 77.248C137.352 75.712 135.416 73.6 134.072 70.912C132.728 68.208 132.056 65.096 132.056 61.576C132.056 58.04 132.752 54.904 134.144 52.168C135.552 49.432 137.52 47.288 140.048 45.736C142.592 44.184 145.576 43.408 149 43.408C151.64 43.408 153.824 43.768 155.552 44.488C157.28 45.192 158.8 46.04 160.112 47.032L158.216 50.056C157 49.128 155.648 48.4 154.16 47.872C152.672 47.328 151.104 47.056 149.456 47.056C146.624 47.056 144.24 47.688 142.304 48.952C140.384 50.2 138.928 51.92 137.936 54.112C136.944 56.288 136.448 58.784 136.448 61.6C136.448 64.336 136.904 66.784 137.816 68.944C138.744 71.088 140.136 72.784 141.992 74.032C143.864 75.264 146.224 75.88 149.072 75.88C151.248 75.88 153.152 75.6 154.784 75.04C156.432 74.464 157.864 73.648 159.08 72.592L160.448 75.952C159.024 77.104 157.352 77.992 155.432 78.616C153.528 79.224 151.368 79.528 148.952 79.528ZM180.703 78.16C179.087 78.864 177.487 79.272 175.903 79.384C174.335 79.512 172.911 79.328 171.631 78.832C170.367 78.32 169.351 77.488 168.583 76.336C167.831 75.168 167.455 73.656 167.455 71.8V43.096L171.391 42.376V71.992C171.391 73.656 171.823 74.824 172.687 75.496C173.551 76.168 174.647 76.464 175.975 76.384C177.319 76.288 178.695 75.944 180.103 75.352L180.703 78.16ZM190.972 79.12C189.836 79.12 188.78 78.904 187.804 78.472C186.828 78.04 186.044 77.328 185.452 76.336C184.86 75.344 184.564 74.008 184.564 72.328V54.376H188.524V72.208C188.524 73.888 188.82 74.968 189.412 75.448C190.004 75.928 190.708 76.168 191.524 76.168C191.892 76.168 192.372 76.12 192.964 76.024C193.556 75.912 194.06 75.776 194.476 75.616L194.956 78.28C194.364 78.52 193.692 78.72 192.94 78.88C192.188 79.04 191.532 79.12 190.972 79.12ZM184.66 50.872L190.084 43.192H195.172L187.78 50.872H184.66ZM223.418 79.456C221.674 79.712 220.346 79.616 219.434 79.168C218.522 78.72 217.898 77.92 217.562 76.768C217.226 75.6 217.058 74.072 217.058 72.184V65.512C217.058 62.6 216.658 60.496 215.858 59.2C215.058 57.888 213.73 57.232 211.874 57.232C210.722 57.232 209.546 57.52 208.346 58.096C207.162 58.656 206.146 59.544 205.298 60.76C204.466 61.96 203.986 63.52 203.858 65.44V79H199.922V62.224C199.922 60.832 199.682 59.616 199.202 58.576C198.722 57.536 198.202 56.552 197.642 55.624L201.602 54.376C202.034 55.032 202.426 55.704 202.778 56.392C203.146 57.064 203.386 57.792 203.498 58.576C204.218 57.152 205.442 56.008 207.17 55.144C208.914 54.28 210.762 53.848 212.714 53.848C215.498 53.848 217.578 54.768 218.954 56.608C220.33 58.432 221.018 61.376 221.018 65.44V71.32C221.018 72.536 221.042 73.536 221.09 74.32C221.138 75.104 221.354 75.656 221.738 75.976C222.122 76.28 222.81 76.336 223.802 76.144L223.418 79.456ZM236.675 79.12C235.539 79.12 234.483 78.904 233.507 78.472C232.531 78.04 231.747 77.328 231.155 76.336C230.563 75.344 230.267 74.008 230.267 72.328V54.376H234.227V72.208C234.227 73.888 234.523 74.968 235.115 75.448C235.707 75.928 236.411 76.168 237.227 76.168C237.595 76.168 238.075 76.12 238.667 76.024C239.259 75.912 239.763 75.776 240.179 75.616L240.659 78.28C240.067 78.52 239.395 78.72 238.643 78.88C237.891 79.04 237.235 79.12 236.675 79.12ZM230.195 49.288V44.992H234.419V49.288H230.195ZM256.546 79.552C254.306 79.552 252.186 79.08 250.186 78.136C248.202 77.176 246.586 75.76 245.338 73.888C244.106 72.016 243.49 69.696 243.49 66.928C243.49 64.832 243.858 62.976 244.594 61.36C245.346 59.728 246.346 58.352 247.594 57.232C248.858 56.112 250.274 55.264 251.842 54.688C253.426 54.096 255.042 53.8 256.69 53.8C258.146 53.8 259.586 54.04 261.01 54.52C262.45 55 263.754 55.8 264.922 56.92L263.482 59.824C262.586 58.96 261.578 58.32 260.458 57.904C259.338 57.472 258.21 57.256 257.074 57.256C255.474 57.256 253.946 57.624 252.49 58.36C251.034 59.08 249.85 60.152 248.938 61.576C248.026 63 247.57 64.744 247.57 66.808C247.57 68.936 248.018 70.696 248.914 72.088C249.81 73.464 250.97 74.488 252.394 75.16C253.834 75.816 255.354 76.144 256.954 76.144C258.25 76.144 259.546 75.904 260.842 75.424C262.138 74.928 263.282 74.216 264.274 73.288L265.642 76.312C264.314 77.384 262.858 78.192 261.274 78.736C259.69 79.28 258.114 79.552 256.546 79.552ZM278.482 79.528C276.482 79.528 274.73 79.072 273.226 78.16C271.738 77.232 270.578 75.944 269.746 74.296C268.914 72.632 268.498 70.696 268.498 68.488C268.498 65.56 269.074 63 270.226 60.808C271.378 58.616 272.986 56.912 275.05 55.696C277.13 54.464 279.554 53.848 282.322 53.848C283.938 53.848 285.53 54.04 287.098 54.424C288.666 54.792 289.93 55.288 290.89 55.912V72.136C290.89 73.192 291.162 74.048 291.706 74.704C292.266 75.344 292.994 75.664 293.89 75.664L293.074 79.096C291.682 79.096 290.474 78.72 289.45 77.968C288.426 77.216 287.778 76.232 287.506 75.016C286.69 76.376 285.458 77.472 283.81 78.304C282.162 79.12 280.386 79.528 278.482 79.528ZM279.082 76.216C280.666 76.216 282.042 75.864 283.21 75.16C284.394 74.44 285.314 73.472 285.97 72.256C286.626 71.04 286.954 69.664 286.954 68.128V58.072C286.458 57.816 285.778 57.616 284.914 57.472C284.05 57.312 283.162 57.232 282.25 57.232C280.314 57.232 278.618 57.696 277.162 58.624C275.722 59.536 274.594 60.816 273.778 62.464C272.978 64.112 272.578 66.04 272.578 68.248C272.578 70.632 273.17 72.56 274.354 74.032C275.554 75.488 277.13 76.216 279.082 76.216Z" fill="#003336"/>
<defs>
<filter id="filter0_d_14_614" x="12.4639" y="14.4644" width="88.2695" height="88.2651" filterUnits="userSpaceOnUse" color-interpolation-filters="sRGB">
<feFlood flood-opacity="0" result="BackgroundImageFix"/>
<feColorMatrix in="SourceAlpha" type="matrix" values="0 0 0 0 0 0 0 0 0 0 0 0 0 0 0 0 0 0 127 0" result="hardAlpha"/>
<feOffset dy="2"/>
<feGaussianBlur stdDeviation="2"/>
<feComposite in2="hardAlpha" operator="out"/>
<feColorMatrix type="matrix" values="0 0 0 0 0 0 0 0 0 0 0 0 0 0 0 0 0 0 0.25 0"/>
<feBlend mode="normal" in2="BackgroundImageFix" result="effect1_dropShadow_14_614"/>
<feBlend mode="normal" in="SourceGraphic" in2="effect1_dropShadow_14_614" result="shape"/>
</filter>
<linearGradient id="paint0_linear_14_614" x1="56.5697" y1="35.7148" x2="56.5697" y2="51.7148" gradientUnits="userSpaceOnUse">
<stop stop-color="#0CAD9A"/>
<stop offset="1" stop-color="#05473F"/>
</linearGradient>
<linearGradient id="paint1_linear_14_614" x1="51.3695" y1="46.1147" x2="51.3695" y2="62.1147" gradientUnits="userSpaceOnUse">
<stop stop-color="#0CAD9A"/>
<stop offset="1" stop-color="#05473F"/>
</linearGradient>
<linearGradient id="paint2_linear_14_614" x1="85.3999" y1="18.3998" x2="58.3999" y2="79.5998" gradientUnits="userSpaceOnUse">
<stop offset="0.526875" stop-color="#0CAD9A"/>
<stop offset="1" stop-color="#003336"/>
</linearGradient>
</defs>
</svg>
