<svg width="236" height="45" viewBox="0 0 236 45" fill="none" xmlns="http://www.w3.org/2000/svg">
<path d="M44.5 19.6406H36.5L30.5 37.6406L18.5 1.64062L12.5 19.6406H4.5" stroke="#292D54" stroke-width="2" stroke-linecap="round" stroke-linejoin="round"/>
<g style="mix-blend-mode:multiply">
<path d="M0.5 39.6406C0.5 36.8792 2.73858 34.6406 5.5 34.6406H45.5C48.2614 34.6406 50.5 36.8792 50.5 39.6406C50.5 42.402 48.2614 44.6406 45.5 44.6406H5.5C2.73858 44.6406 0.5 42.402 0.5 39.6406Z" fill="#0CAD9A"/>
</g>
<path d="M69.4376 18.6863H75.8408V20.6551H69.4376V18.6863ZM69.6216 24.2063H76.8896V26.2119H67.2296V13.3319H76.632V15.3375H69.6216V24.2063ZM82.3744 26.2119L78.1608 16.3863H80.5528L84.1776 25.0527H83L86.7536 16.3863H88.9616L84.748 26.2119H82.3744ZM95.0975 26.3407C94.0917 26.3407 93.1962 26.126 92.4111 25.6967C91.6261 25.2551 91.0066 24.654 90.5527 23.8935C90.0989 23.133 89.8719 22.2682 89.8719 21.2991C89.8719 20.3178 90.0989 19.453 90.5527 18.7047C91.0066 17.9442 91.6261 17.3492 92.4111 16.9199C93.1962 16.4906 94.0917 16.2759 95.0975 16.2759C96.1157 16.2759 97.0173 16.4906 97.8023 16.9199C98.5997 17.3492 99.2191 17.938 99.6607 18.6863C100.115 19.4346 100.342 20.3055 100.342 21.2991C100.342 22.2682 100.115 23.133 99.6607 23.8935C99.2191 24.654 98.5997 25.2551 97.8023 25.6967C97.0173 26.126 96.1157 26.3407 95.0975 26.3407ZM95.0975 24.3719C95.6618 24.3719 96.1647 24.2492 96.6063 24.0039C97.0479 23.7586 97.3914 23.4028 97.6367 22.9367C97.8943 22.4706 98.0231 21.9247 98.0231 21.2991C98.0231 20.6612 97.8943 20.1154 97.6367 19.6615C97.3914 19.1954 97.0479 18.8396 96.6063 18.5943C96.1647 18.349 95.6679 18.2263 95.1159 18.2263C94.5517 18.2263 94.0487 18.349 93.6071 18.5943C93.1778 18.8396 92.8343 19.1954 92.5767 19.6615C92.3191 20.1154 92.1903 20.6612 92.1903 21.2991C92.1903 21.9247 92.3191 22.4706 92.5767 22.9367C92.8343 23.4028 93.1778 23.7586 93.6071 24.0039C94.0487 24.2492 94.5455 24.3719 95.0975 24.3719ZM103.093 26.2119V12.5591H105.393V26.2119H103.093ZM113.122 26.3407C112.288 26.3407 111.552 26.1874 110.914 25.8807C110.276 25.5618 109.779 25.0834 109.424 24.4455C109.068 23.7954 108.89 22.9796 108.89 21.9983V16.3863H111.19V21.6855C111.19 22.5687 111.386 23.2311 111.779 23.6727C112.184 24.102 112.754 24.3167 113.49 24.3167C114.03 24.3167 114.496 24.2063 114.888 23.9855C115.293 23.7647 115.606 23.4335 115.827 22.9919C116.06 22.5503 116.176 22.0044 116.176 21.3543V16.3863H118.476V26.2119H116.287V23.5623L116.673 24.3719C116.342 25.0098 115.858 25.5004 115.22 25.8439C114.582 26.1751 113.883 26.3407 113.122 26.3407ZM126.548 26.3407C125.517 26.3407 124.597 26.126 123.788 25.6967C122.991 25.2551 122.365 24.654 121.911 23.8935C121.457 23.133 121.23 22.2682 121.23 21.2991C121.23 20.3178 121.457 19.453 121.911 18.7047C122.365 17.9442 122.991 17.3492 123.788 16.9199C124.597 16.4906 125.517 16.2759 126.548 16.2759C127.505 16.2759 128.345 16.4722 129.069 16.8647C129.805 17.245 130.363 17.8092 130.743 18.5575L128.977 19.5879C128.682 19.1218 128.32 18.7783 127.891 18.5575C127.474 18.3367 127.02 18.2263 126.529 18.2263C125.965 18.2263 125.456 18.349 125.002 18.5943C124.548 18.8396 124.193 19.1954 123.935 19.6615C123.677 20.1154 123.549 20.6612 123.549 21.2991C123.549 21.937 123.677 22.489 123.935 22.9551C124.193 23.409 124.548 23.7586 125.002 24.0039C125.456 24.2492 125.965 24.3719 126.529 24.3719C127.02 24.3719 127.474 24.2615 127.891 24.0407C128.32 23.8199 128.682 23.4764 128.977 23.0103L130.743 24.0407C130.363 24.7767 129.805 25.3471 129.069 25.7519C128.345 26.1444 127.505 26.3407 126.548 26.3407ZM125.591 30.4071C125.26 30.4071 124.953 30.3703 124.671 30.2967C124.389 30.2354 124.131 30.1434 123.898 30.0207L124.321 28.9351C124.518 29.0332 124.714 29.1068 124.91 29.1559C125.119 29.205 125.34 29.2295 125.573 29.2295C125.928 29.2295 126.18 29.1682 126.327 29.0455C126.474 28.9228 126.548 28.7634 126.548 28.5671C126.548 28.3831 126.468 28.2359 126.309 28.1255C126.161 28.0151 125.916 27.9599 125.573 27.9599H125.002L125.499 26.0831H126.75L126.493 27.1135C127.032 27.1748 127.431 27.3466 127.689 27.6287C127.959 27.9231 128.093 28.2666 128.093 28.6591C128.093 29.1988 127.867 29.622 127.413 29.9287C126.959 30.2476 126.352 30.4071 125.591 30.4071ZM139.337 26.2119V24.2247L139.208 23.8015V20.3239C139.208 19.6492 139.006 19.1279 138.601 18.7599C138.196 18.3796 137.583 18.1895 136.761 18.1895C136.209 18.1895 135.663 18.2754 135.123 18.4471C134.596 18.6188 134.148 18.858 133.78 19.1647L132.878 17.4903C133.406 17.0855 134.032 16.785 134.755 16.5887C135.491 16.3802 136.252 16.2759 137.037 16.2759C138.46 16.2759 139.558 16.6194 140.33 17.3063C141.116 17.981 141.508 19.0298 141.508 20.4527V26.2119H139.337ZM136.246 26.3407C135.51 26.3407 134.866 26.218 134.314 25.9727C133.762 25.7151 133.332 25.3655 133.026 24.9239C132.731 24.47 132.584 23.961 132.584 23.3967C132.584 22.8447 132.713 22.3479 132.97 21.9063C133.24 21.4647 133.676 21.1151 134.277 20.8575C134.878 20.5999 135.675 20.4711 136.669 20.4711H139.521V21.9983H136.834C136.049 21.9983 135.522 22.1271 135.252 22.3847C134.982 22.63 134.847 22.9367 134.847 23.3047C134.847 23.7218 135.013 24.053 135.344 24.2983C135.675 24.5436 136.135 24.6663 136.724 24.6663C137.288 24.6663 137.791 24.5375 138.233 24.2799C138.687 24.0223 139.012 23.642 139.208 23.1391L139.594 24.5191C139.374 25.0956 138.975 25.5434 138.398 25.8623C137.834 26.1812 137.117 26.3407 136.246 26.3407ZM138.564 15.0431C138.27 15.0431 138 14.9879 137.754 14.8775C137.521 14.7548 137.307 14.6138 137.11 14.4543C136.926 14.2826 136.749 14.1354 136.577 14.0127C136.405 13.89 136.233 13.8287 136.062 13.8287C135.804 13.8287 135.596 13.9268 135.436 14.1231C135.277 14.3194 135.185 14.5892 135.16 14.9327H133.927C133.952 14.1722 134.136 13.5711 134.479 13.1295C134.835 12.6879 135.313 12.4671 135.914 12.4671C136.209 12.4671 136.479 12.5284 136.724 12.6511C136.969 12.7738 137.184 12.9148 137.368 13.0743C137.564 13.2338 137.748 13.3748 137.92 13.4975C138.092 13.6202 138.257 13.6815 138.417 13.6815C138.674 13.6815 138.883 13.5895 139.042 13.4055C139.214 13.2215 139.306 12.9639 139.318 12.6327H140.551C140.539 13.3442 140.355 13.9268 139.999 14.3807C139.644 14.8223 139.165 15.0431 138.564 15.0431ZM149.446 26.3407C148.44 26.3407 147.545 26.126 146.759 25.6967C145.974 25.2551 145.355 24.654 144.901 23.8935C144.447 23.133 144.22 22.2682 144.22 21.2991C144.22 20.3178 144.447 19.453 144.901 18.7047C145.355 17.9442 145.974 17.3492 146.759 16.9199C147.545 16.4906 148.44 16.2759 149.446 16.2759C150.464 16.2759 151.366 16.4906 152.151 16.9199C152.948 17.3492 153.567 17.938 154.009 18.6863C154.463 19.4346 154.69 20.3055 154.69 21.2991C154.69 22.2682 154.463 23.133 154.009 23.8935C153.567 24.654 152.948 25.2551 152.151 25.6967C151.366 26.126 150.464 26.3407 149.446 26.3407ZM149.446 24.3719C150.01 24.3719 150.513 24.2492 150.955 24.0039C151.396 23.7586 151.74 23.4028 151.985 22.9367C152.243 22.4706 152.371 21.9247 152.371 21.2991C152.371 20.6612 152.243 20.1154 151.985 19.6615C151.74 19.1954 151.396 18.8396 150.955 18.5943C150.513 18.349 150.016 18.2263 149.464 18.2263C148.9 18.2263 148.397 18.349 147.955 18.5943C147.526 18.8396 147.183 19.1954 146.925 19.6615C146.667 20.1154 146.539 20.6612 146.539 21.2991C146.539 21.9247 146.667 22.4706 146.925 22.9367C147.183 23.4028 147.526 23.7586 147.955 24.0039C148.397 24.2492 148.894 24.3719 149.446 24.3719ZM175.48 16.2759C176.265 16.2759 176.958 16.4292 177.559 16.7359C178.172 17.0426 178.651 17.5148 178.994 18.1527C179.338 18.7783 179.51 19.5879 179.51 20.5815V26.2119H177.21V20.8759C177.21 20.005 177.019 19.3548 176.639 18.9255C176.259 18.4962 175.713 18.2815 175.002 18.2815C174.499 18.2815 174.051 18.3919 173.658 18.6127C173.278 18.8335 172.978 19.1586 172.757 19.5879C172.548 20.0172 172.444 20.5631 172.444 21.2255V26.2119H170.144V20.8759C170.144 20.005 169.954 19.3548 169.574 18.9255C169.193 18.4962 168.647 18.2815 167.936 18.2815C167.433 18.2815 166.985 18.3919 166.593 18.6127C166.212 18.8335 165.912 19.1586 165.691 19.5879C165.483 20.0172 165.378 20.5631 165.378 21.2255V26.2119H163.078V16.3863H165.268V18.9991L164.882 18.2263C165.213 17.5884 165.691 17.1039 166.317 16.7727C166.955 16.4415 167.678 16.2759 168.488 16.2759C169.408 16.2759 170.205 16.5028 170.88 16.9567C171.567 17.4106 172.021 18.0975 172.242 19.0175L171.34 18.7047C171.659 17.9687 172.186 17.3799 172.922 16.9383C173.658 16.4967 174.511 16.2759 175.48 16.2759ZM187.637 26.3407C186.545 26.3407 185.589 26.126 184.767 25.6967C183.957 25.2551 183.325 24.654 182.871 23.8935C182.43 23.133 182.209 22.2682 182.209 21.2991C182.209 20.3178 182.424 19.453 182.853 18.7047C183.295 17.9442 183.896 17.3492 184.656 16.9199C185.429 16.4906 186.306 16.2759 187.287 16.2759C188.244 16.2759 189.097 16.4844 189.845 16.9015C190.593 17.3186 191.182 17.9074 191.611 18.6679C192.041 19.4284 192.255 20.3239 192.255 21.3543C192.255 21.4524 192.249 21.5628 192.237 21.6855C192.237 21.8082 192.231 21.9247 192.219 22.0351H184.031V20.5079H191.004L190.103 20.9863C190.115 20.422 189.998 19.9252 189.753 19.4959C189.508 19.0666 189.17 18.7292 188.741 18.4839C188.324 18.2386 187.839 18.1159 187.287 18.1159C186.723 18.1159 186.226 18.2386 185.797 18.4839C185.38 18.7292 185.049 19.0727 184.803 19.5143C184.57 19.9436 184.454 20.4527 184.454 21.0415V21.4095C184.454 21.9983 184.589 22.5196 184.859 22.9735C185.129 23.4274 185.509 23.777 185.999 24.0223C186.49 24.2676 187.054 24.3903 187.692 24.3903C188.244 24.3903 188.741 24.3044 189.183 24.1327C189.624 23.961 190.017 23.6911 190.36 23.3231L191.593 24.7399C191.151 25.2551 190.593 25.6538 189.919 25.9359C189.256 26.2058 188.496 26.3407 187.637 26.3407ZM185.687 15.0431L188.171 12.5223H190.875L187.674 15.0431H185.687ZM199.175 26.3407C198.231 26.3407 197.378 26.1322 196.618 25.7151C195.869 25.2858 195.28 24.697 194.851 23.9487C194.422 23.2004 194.207 22.3172 194.207 21.2991C194.207 20.281 194.422 19.3978 194.851 18.6495C195.28 17.9012 195.869 17.3186 196.618 16.9015C197.378 16.4844 198.231 16.2759 199.175 16.2759C199.997 16.2759 200.733 16.4599 201.383 16.8279C202.033 17.1836 202.548 17.7295 202.929 18.4655C203.309 19.2015 203.499 20.146 203.499 21.2991C203.499 22.4399 203.315 23.3844 202.947 24.1327C202.579 24.8687 202.07 25.4207 201.42 25.7887C200.77 26.1567 200.022 26.3407 199.175 26.3407ZM199.451 24.3719C200.003 24.3719 200.494 24.2492 200.923 24.0039C201.365 23.7586 201.714 23.4028 201.972 22.9367C202.242 22.4706 202.377 21.9247 202.377 21.2991C202.377 20.6612 202.242 20.1154 201.972 19.6615C201.714 19.1954 201.365 18.8396 200.923 18.5943C200.494 18.349 200.003 18.2263 199.451 18.2263C198.899 18.2263 198.402 18.349 197.961 18.5943C197.531 18.8396 197.182 19.1954 196.912 19.6615C196.654 20.1154 196.526 20.6612 196.526 21.2991C196.526 21.9247 196.654 22.4706 196.912 22.9367C197.182 23.4028 197.531 23.7586 197.961 24.0039C198.402 24.2492 198.899 24.3719 199.451 24.3719ZM202.432 26.2119V23.8935L202.524 21.2807L202.34 18.6679V12.5591H204.622V26.2119H202.432ZM208.201 26.2119V16.3863H210.501V26.2119H208.201ZM209.36 14.7671C208.931 14.7671 208.575 14.6322 208.293 14.3623C208.023 14.0924 207.888 13.7674 207.888 13.3871C207.888 12.9946 208.023 12.6695 208.293 12.4119C208.575 12.142 208.931 12.0071 209.36 12.0071C209.789 12.0071 210.139 12.1359 210.409 12.3935C210.691 12.6388 210.832 12.9516 210.832 13.3319C210.832 13.7367 210.697 14.0802 210.427 14.3623C210.157 14.6322 209.802 14.7671 209.36 14.7671ZM218.58 26.3407C217.549 26.3407 216.629 26.126 215.82 25.6967C215.022 25.2551 214.397 24.654 213.943 23.8935C213.489 23.133 213.262 22.2682 213.262 21.2991C213.262 20.3178 213.489 19.453 213.943 18.7047C214.397 17.9442 215.022 17.3492 215.82 16.9199C216.629 16.4906 217.549 16.2759 218.58 16.2759C219.536 16.2759 220.377 16.4722 221.1 16.8647C221.836 17.245 222.394 17.8092 222.775 18.5575L221.008 19.5879C220.714 19.1218 220.352 18.7783 219.923 18.5575C219.506 18.3367 219.052 18.2263 218.561 18.2263C217.997 18.2263 217.488 18.349 217.034 18.5943C216.58 18.8396 216.224 19.1954 215.967 19.6615C215.709 20.1154 215.58 20.6612 215.58 21.2991C215.58 21.937 215.709 22.489 215.967 22.9551C216.224 23.409 216.58 23.7586 217.034 24.0039C217.488 24.2492 217.997 24.3719 218.561 24.3719C219.052 24.3719 219.506 24.2615 219.923 24.0407C220.352 23.8199 220.714 23.4764 221.008 23.0103L222.775 24.0407C222.394 24.7767 221.836 25.3471 221.1 25.7519C220.377 26.1444 219.536 26.3407 218.58 26.3407ZM231.369 26.2119V24.2247L231.24 23.8015V20.3239C231.24 19.6492 231.037 19.1279 230.633 18.7599C230.228 18.3796 229.614 18.1895 228.793 18.1895C228.241 18.1895 227.695 18.2754 227.155 18.4471C226.627 18.6188 226.18 18.858 225.812 19.1647L224.91 17.4903C225.438 17.0855 226.063 16.785 226.787 16.5887C227.523 16.3802 228.283 16.2759 229.069 16.2759C230.491 16.2759 231.589 16.6194 232.362 17.3063C233.147 17.981 233.54 19.0298 233.54 20.4527V26.2119H231.369ZM228.277 26.3407C227.541 26.3407 226.897 26.218 226.345 25.9727C225.793 25.7151 225.364 25.3655 225.057 24.9239C224.763 24.47 224.616 23.961 224.616 23.3967C224.616 22.8447 224.745 22.3479 225.002 21.9063C225.272 21.4647 225.707 21.1151 226.309 20.8575C226.91 20.5999 227.707 20.4711 228.701 20.4711H231.553V21.9983H228.866C228.081 21.9983 227.554 22.1271 227.284 22.3847C227.014 22.63 226.879 22.9367 226.879 23.3047C226.879 23.7218 227.045 24.053 227.376 24.2983C227.707 24.5436 228.167 24.6663 228.756 24.6663C229.32 24.6663 229.823 24.5375 230.265 24.2799C230.718 24.0223 231.043 23.642 231.24 23.1391L231.626 24.5191C231.405 25.0956 231.007 25.5434 230.43 25.8623C229.866 26.1812 229.148 26.3407 228.277 26.3407Z" fill="#003336"/>
</svg>
