<svg width="52" height="52" viewBox="0 0 52 52" fill="none" xmlns="http://www.w3.org/2000/svg">
<g filter="url(#filter0_d_14_573)">
<path d="M19.1607 26.5081C18.6849 26.5659 18.3364 26.9913 18.4176 27.4637C18.5681 28.3398 18.8315 29.1861 19.2003 29.9744C19.6874 31.0157 20.3488 31.9353 21.1467 32.6807C21.9447 33.4261 22.8635 33.9826 23.8507 34.3186C24.838 34.6545 25.8743 34.7633 26.9006 34.6387C27.9269 34.514 28.923 34.1585 29.8321 33.5923C30.7411 33.0261 31.5454 32.2603 32.1988 31.3387C32.8523 30.4171 33.3421 29.3577 33.6405 28.221C33.9731 27.0582 33.923 26.3055 33.7505 25.4481C33.6739 25.0675 33.3146 24.8138 32.9283 24.8525C32.5084 24.8946 32.2042 25.2666 32.2006 25.6886C32.195 26.3489 32.1079 27.0069 31.941 27.6427C31.7101 28.5224 31.3309 29.3423 30.8252 30.0556C30.3195 30.7688 29.6971 31.3615 28.9935 31.7997C28.29 32.2379 27.519 32.5131 26.7248 32.6095C25.9305 32.706 25.1284 32.6218 24.3643 32.3618C23.6003 32.1018 22.8892 31.6711 22.2716 31.0942C21.6541 30.5173 21.1422 29.8056 20.7652 28.9997C20.5152 28.4652 20.3277 27.8963 20.2068 27.3075C20.1055 26.8147 19.6602 26.4475 19.1607 26.5081Z" fill="#003336"/>
<path d="M18.3549 27.0401L18.3069 26.6339L18.2849 26.4476C18.2676 26.3013 18.2627 26.1538 18.27 26.0066C18.3192 25.0228 18.8774 24.1356 19.743 23.6654L20.3804 23.3192C20.6694 23.1622 21.0263 23.2066 21.2679 23.4297L21.3544 23.5095C21.6985 23.8271 21.6287 24.3888 21.2173 24.6126L21.1991 24.6225C20.6023 24.9471 20.2096 25.5507 20.1545 26.2277L20.1545 27.0401L18.3549 27.0401Z" fill="#003336"/>
<path d="M33.2428 27.4019C33.5738 27.2916 33.812 27.001 33.8552 26.6549L33.8747 26.4992L33.8747 25.8674C33.7605 25.0108 33.2663 24.2513 32.5295 23.7998L31.8119 23.3601C31.5243 23.1839 31.1547 23.2201 30.9068 23.4489L30.8497 23.5016C30.4985 23.8259 30.5707 24.3998 30.9907 24.6282C31.5892 24.9538 31.9926 25.5514 32.0694 26.2284L32.0694 27.1311L33.2428 27.4019Z" fill="#003336"/>
<rect x="24.8486" y="16.1191" width="2.34687" height="7.22115" rx="1.17344" fill="url(#paint0_linear_14_573)"/>
<rect x="22.5017" y="20.8125" width="2.34687" height="7.22115" rx="1.17344" transform="rotate(-90 22.5017 20.8125)" fill="url(#paint1_linear_14_573)"/>
<rect x="25.2097" y="32.9082" width="1.62476" height="9.20696" fill="#003336"/>
<circle cx="40.374" cy="21.1743" r="1.48582" stroke="#003336"/>
<path d="M43.277 24.0448C43.721 24.0062 44.1141 24.3349 44.1327 24.7802C44.2987 28.7498 43.1543 32.673 40.8641 35.9388C38.419 39.4253 34.8242 41.9396 30.7107 43.0403C26.5972 44.141 22.228 43.7576 18.3701 41.9576C14.5123 40.1576 11.4124 37.0559 9.61475 33.1972C7.81707 29.3384 7.4365 24.9692 8.53985 20.8567C9.64319 16.7441 12.1599 13.1511 15.6482 10.7084C19.1365 8.26572 23.3733 7.12949 27.6149 7.49922C31.588 7.84554 35.3273 9.49243 38.2592 12.1727C38.5882 12.4733 38.5871 12.9857 38.2721 13.3009C37.957 13.6161 37.4474 13.6145 37.1172 13.3153C34.4544 10.9024 31.0694 9.41989 27.4742 9.1065C23.6104 8.76971 19.751 9.80473 16.5734 12.0298C13.3958 14.255 11.1033 17.5279 10.0982 21.2742C9.09314 25.0204 9.43981 29.0004 11.0774 32.5154C12.7149 36.0305 15.5387 38.8558 19.0529 40.4955C22.5671 42.1352 26.5471 42.4844 30.2942 41.4818C34.0412 40.4791 37.3159 38.1888 39.5431 35.0128C41.6157 32.0575 42.6581 28.5111 42.5235 24.9195C42.5068 24.4744 42.8333 24.0833 43.277 24.0448Z" fill="#003336"/>
<path d="M39.1295 24.4397C39.6258 24.3971 40.0659 24.7645 40.0771 25.2625C40.1453 28.287 39.2248 31.2591 37.4425 33.7204C35.4836 36.4256 32.6148 38.3326 29.3614 39.0922C26.1081 39.8518 22.6881 39.4131 19.728 37.8564C16.7679 36.2997 14.4658 33.7293 13.2435 30.616C12.0212 27.5027 11.9605 24.055 13.0725 20.9045C14.1845 17.7539 16.3947 15.1115 19.2983 13.4612C22.202 11.8109 25.6046 11.2632 28.8828 11.9185C31.8654 12.5148 34.5634 14.0704 36.5719 16.3352C36.9027 16.7081 36.8295 17.2773 36.4359 17.5832C36.0424 17.8889 35.4779 17.8153 35.1437 17.4456C33.4046 15.5224 31.0883 14.2011 28.5317 13.69C25.6794 13.1199 22.7189 13.5964 20.1926 15.0322C17.6662 16.4681 15.7431 18.7672 14.7756 21.5084C13.8081 24.2496 13.861 27.2493 14.9245 29.958C15.988 32.6668 17.9909 34.9032 20.5664 36.2577C23.1419 37.6121 26.1175 37.9938 28.9481 37.3329C31.7787 36.6721 34.2749 35.0128 35.9792 32.6591C37.5064 30.5502 38.3062 28.0102 38.2736 25.4202C38.2673 24.921 38.6321 24.4824 39.1295 24.4397Z" fill="url(#paint2_linear_14_573)"/>
<path d="M41.6589 24.8063C41.811 25.2136 41.6056 25.6745 41.1791 25.7594C40.5822 25.8781 39.9663 25.8806 39.3659 25.7638C38.508 25.597 37.7158 25.1934 37.079 24.5987C36.4422 24.0039 35.9862 23.2418 35.7624 22.3983C35.5386 21.5549 35.5561 20.6639 35.8128 19.8259C36.0695 18.988 36.5551 18.2365 37.2149 17.6566C37.8747 17.0766 38.6823 16.6913 39.5464 16.5441C40.4105 16.3969 41.2966 16.4937 42.1045 16.8237C42.6656 17.0528 43.1735 17.388 43.6017 17.8084C43.9151 18.1161 43.8299 18.619 43.4736 18.8758C43.1166 19.133 42.6233 19.0412 42.2833 18.7618C42.0466 18.5673 41.7807 18.4083 41.4939 18.2911C40.9591 18.0728 40.3727 18.0087 39.8008 18.1061C39.2288 18.2035 38.6943 18.4586 38.2576 18.8424C37.8209 19.2263 37.4995 19.7236 37.3296 20.2782C37.1597 20.8328 37.1481 21.4226 37.2962 21.9808C37.4444 22.5391 37.7462 23.0435 38.1677 23.4372C38.5892 23.8308 39.1135 24.0979 39.6813 24.2083C39.9884 24.2681 40.3017 24.2806 40.6105 24.247C41.046 24.1996 41.5056 24.3958 41.6589 24.8063Z" fill="#003336"/>
</g>
<defs>
<filter id="filter0_d_14_573" x="3.92114" y="5.43066" width="44.2273" height="44.2256" filterUnits="userSpaceOnUse" color-interpolation-filters="sRGB">
<feFlood flood-opacity="0" result="BackgroundImageFix"/>
<feColorMatrix in="SourceAlpha" type="matrix" values="0 0 0 0 0 0 0 0 0 0 0 0 0 0 0 0 0 0 127 0" result="hardAlpha"/>
<feOffset dy="2"/>
<feGaussianBlur stdDeviation="2"/>
<feComposite in2="hardAlpha" operator="out"/>
<feColorMatrix type="matrix" values="0 0 0 0 0 0 0 0 0 0 0 0 0 0 0 0 0 0 0.25 0"/>
<feBlend mode="normal" in2="BackgroundImageFix" result="effect1_dropShadow_14_573"/>
<feBlend mode="normal" in="SourceGraphic" in2="effect1_dropShadow_14_573" result="shape"/>
</filter>
<linearGradient id="paint0_linear_14_573" x1="26.0221" y1="16.1191" x2="26.0221" y2="23.3403" gradientUnits="userSpaceOnUse">
<stop stop-color="#0CAD9A"/>
<stop offset="1" stop-color="#05473F"/>
</linearGradient>
<linearGradient id="paint1_linear_14_573" x1="23.6751" y1="20.8125" x2="23.6751" y2="28.0336" gradientUnits="userSpaceOnUse">
<stop stop-color="#0CAD9A"/>
<stop offset="1" stop-color="#05473F"/>
</linearGradient>
<linearGradient id="paint2_linear_14_573" x1="39.0337" y1="8.30424" x2="26.848" y2="35.9251" gradientUnits="userSpaceOnUse">
<stop offset="0.526875" stop-color="#0CAD9A"/>
<stop offset="1" stop-color="#003336"/>
</linearGradient>
</defs>
</svg>
