<svg width="248" height="50" viewBox="0 0 248 50" fill="none" xmlns="http://www.w3.org/2000/svg">
<path d="M28.4697 4.07812H12.4697C11.4089 4.07813 10.3914 4.49955 9.6413 5.2497C8.89115 5.99984 8.46973 7.01726 8.46973 8.07812V40.0781C8.46973 41.139 8.89115 42.1564 9.6413 42.9066C10.3914 43.6567 11.4089 44.0781 12.4697 44.0781H36.4697C37.5306 44.0781 38.548 43.6567 39.2982 42.9066C40.0483 42.1564 40.4697 41.139 40.4697 40.0781V16.0781L28.4697 4.07812Z" stroke="#292D54" stroke-width="2" stroke-linecap="round" stroke-linejoin="round"/>
<path d="M28.4697 4.07812V16.0781H40.4697" stroke="#292D54" stroke-width="2" stroke-linecap="round" stroke-linejoin="round"/>
<path d="M32.4697 26.0781H16.4697" stroke="#292D54" stroke-width="2" stroke-linecap="round" stroke-linejoin="round"/>
<path d="M32.4697 34.0781H16.4697" stroke="#292D54" stroke-width="2" stroke-linecap="round" stroke-linejoin="round"/>
<path d="M20.4697 18.0781H18.4697H16.4697" stroke="#292D54" stroke-width="2" stroke-linecap="round" stroke-linejoin="round"/>
<g style="mix-blend-mode:multiply">
<path d="M0.469727 44.0781C0.469727 41.3167 2.7083 39.0781 5.46973 39.0781H45.4697C48.2311 39.0781 50.4697 41.3167 50.4697 44.0781C50.4697 46.8395 48.2312 49.0781 45.4697 49.0781H5.46973C2.7083 49.0781 0.469727 46.8395 0.469727 44.0781Z" fill="#0CAD9A"/>
</g>
<path d="M72.8365 30.6494V17.7694H78.1357C79.2765 17.7694 80.2517 17.9534 81.0613 18.3214C81.8831 18.6894 82.5149 19.2169 82.9565 19.9038C83.3981 20.5907 83.6189 21.4065 83.6189 22.351C83.6189 23.2955 83.3981 24.1113 82.9565 24.7982C82.5149 25.4851 81.8831 26.0126 81.0613 26.3806C80.2517 26.7486 79.2765 26.9326 78.1357 26.9326H74.1613L75.2285 25.8102V30.6494H72.8365ZM75.2285 26.0678L74.1613 24.9086H78.0253C79.0802 24.9086 79.8714 24.6878 80.3989 24.2462C80.9386 23.7923 81.2085 23.1606 81.2085 22.351C81.2085 21.5291 80.9386 20.8974 80.3989 20.4558C79.8714 20.0142 79.0802 19.7934 78.0253 19.7934H74.1613L75.2285 18.6158V26.0678ZM86.2489 30.6494V20.8238H88.4385V23.5286L88.1809 22.7374C88.4753 22.075 88.9353 21.5721 89.5609 21.2286C90.1988 20.8851 90.99 20.7134 91.9345 20.7134V22.903C91.8364 22.8785 91.7444 22.8662 91.6585 22.8662C91.5727 22.8539 91.4868 22.8478 91.4009 22.8478C90.53 22.8478 89.8369 23.1054 89.3217 23.6206C88.8065 24.1235 88.5489 24.8779 88.5489 25.8838V30.6494H86.2489ZM98.7638 30.7782C97.7579 30.7782 96.8625 30.5635 96.0774 30.1342C95.2923 29.6926 94.6729 29.0915 94.219 28.331C93.7651 27.5705 93.5382 26.7057 93.5382 25.7366C93.5382 24.7553 93.7651 23.8905 94.219 23.1422C94.6729 22.3817 95.2923 21.7867 96.0774 21.3574C96.8625 20.9281 97.7579 20.7134 98.7638 20.7134C99.7819 20.7134 100.684 20.9281 101.469 21.3574C102.266 21.7867 102.885 22.3755 103.327 23.1238C103.781 23.8721 104.008 24.743 104.008 25.7366C104.008 26.7057 103.781 27.5705 103.327 28.331C102.885 29.0915 102.266 29.6926 101.469 30.1342C100.684 30.5635 99.7819 30.7782 98.7638 30.7782ZM98.7638 28.8094C99.3281 28.8094 99.831 28.6867 100.273 28.4414C100.714 28.1961 101.058 27.8403 101.303 27.3742C101.561 26.9081 101.689 26.3622 101.689 25.7366C101.689 25.0987 101.561 24.5529 101.303 24.099C101.058 23.6329 100.714 23.2771 100.273 23.0318C99.831 22.7865 99.3342 22.6638 98.7822 22.6638C98.2179 22.6638 97.715 22.7865 97.2734 23.0318C96.8441 23.2771 96.5006 23.6329 96.243 24.099C95.9854 24.5529 95.8566 25.0987 95.8566 25.7366C95.8566 26.3622 95.9854 26.9081 96.243 27.3742C96.5006 27.8403 96.8441 28.1961 97.2734 28.4414C97.715 28.6867 98.2118 28.8094 98.7638 28.8094ZM112.334 20.7134C113.119 20.7134 113.819 20.8667 114.432 21.1734C115.058 21.4801 115.548 21.9523 115.904 22.5902C116.26 23.2158 116.438 24.0254 116.438 25.019V30.6494H114.138V25.3134C114.138 24.4425 113.929 23.7923 113.512 23.363C113.107 22.9337 112.537 22.719 111.801 22.719C111.261 22.719 110.783 22.8294 110.366 23.0502C109.949 23.271 109.623 23.6022 109.39 24.0438C109.17 24.4731 109.059 25.019 109.059 25.6814V30.6494H106.759V20.8238H108.949V23.4734L108.562 22.6638C108.906 22.0382 109.403 21.5598 110.053 21.2286C110.715 20.8851 111.476 20.7134 112.334 20.7134ZM123.606 30.7782C122.526 30.7782 121.692 30.5022 121.103 29.9502C120.514 29.3859 120.22 28.5579 120.22 27.4662V18.6526H122.52V27.411C122.52 27.8771 122.637 28.239 122.87 28.4966C123.115 28.7542 123.452 28.883 123.882 28.883C124.397 28.883 124.826 28.7481 125.17 28.4782L125.814 30.1158C125.544 30.3366 125.213 30.5022 124.82 30.6126C124.428 30.723 124.023 30.7782 123.606 30.7782ZM118.601 22.7374V20.8974H125.151V22.7374H118.601ZM132.416 30.7782C131.582 30.7782 130.846 30.6249 130.208 30.3182C129.57 29.9993 129.073 29.5209 128.718 28.883C128.362 28.2329 128.184 27.4171 128.184 26.4358V20.8238H130.484V26.123C130.484 27.0062 130.68 27.6686 131.073 28.1102C131.478 28.5395 132.048 28.7542 132.784 28.7542C133.324 28.7542 133.79 28.6438 134.183 28.423C134.587 28.2022 134.9 27.871 135.121 27.4294C135.354 26.9878 135.471 26.4419 135.471 25.7918V20.8238H137.771V30.6494H135.581V27.9998L135.967 28.8094C135.636 29.4473 135.152 29.9379 134.514 30.2814C133.876 30.6126 133.177 30.7782 132.416 30.7782ZM147.388 30.6494V28.6622L147.259 28.239V24.7614C147.259 24.0867 147.056 23.5654 146.652 23.1974C146.247 22.8171 145.633 22.627 144.812 22.627C144.26 22.627 143.714 22.7129 143.174 22.8846C142.646 23.0563 142.199 23.2955 141.831 23.6022L140.929 21.9278C141.457 21.523 142.082 21.2225 142.806 21.0262C143.542 20.8177 144.302 20.7134 145.088 20.7134C146.51 20.7134 147.608 21.0569 148.381 21.7438C149.166 22.4185 149.559 23.4673 149.559 24.8902V30.6494H147.388ZM144.296 30.7782C143.56 30.7782 142.916 30.6555 142.364 30.4102C141.812 30.1526 141.383 29.803 141.076 29.3614C140.782 28.9075 140.635 28.3985 140.635 27.8342C140.635 27.2822 140.764 26.7854 141.021 26.3438C141.291 25.9022 141.726 25.5526 142.328 25.295C142.929 25.0374 143.726 24.9086 144.72 24.9086H147.572V26.4358H144.885C144.1 26.4358 143.573 26.5646 143.303 26.8222C143.033 27.0675 142.898 27.3742 142.898 27.7422C142.898 28.1593 143.064 28.4905 143.395 28.7358C143.726 28.9811 144.186 29.1038 144.775 29.1038C145.339 29.1038 145.842 28.975 146.284 28.7174C146.737 28.4598 147.062 28.0795 147.259 27.5766L147.645 28.9566C147.424 29.5331 147.026 29.9809 146.449 30.2998C145.885 30.6187 145.167 30.7782 144.296 30.7782ZM143.744 19.4806L146.228 16.9598H148.933L145.732 19.4806H143.744ZM153.062 30.6494V20.8238H155.252V23.5286L154.994 22.7374C155.289 22.075 155.749 21.5721 156.374 21.2286C157.012 20.8851 157.804 20.7134 158.748 20.7134V22.903C158.65 22.8785 158.558 22.8662 158.472 22.8662C158.386 22.8539 158.3 22.8478 158.214 22.8478C157.344 22.8478 156.65 23.1054 156.135 23.6206C155.62 24.1235 155.362 24.8779 155.362 25.8838V30.6494H153.062ZM161.251 30.6494V20.8238H163.551V30.6494H161.251ZM162.41 19.2046C161.981 19.2046 161.625 19.0697 161.343 18.7998C161.073 18.5299 160.938 18.2049 160.938 17.8246C160.938 17.4321 161.073 17.107 161.343 16.8494C161.625 16.5795 161.981 16.4446 162.41 16.4446C162.84 16.4446 163.189 16.5734 163.459 16.831C163.741 17.0763 163.882 17.3891 163.882 17.7694C163.882 18.1742 163.747 18.5177 163.478 18.7998C163.208 19.0697 162.852 19.2046 162.41 19.2046ZM171.538 30.7782C170.532 30.7782 169.637 30.5635 168.852 30.1342C168.066 29.6926 167.447 29.0915 166.993 28.331C166.539 27.5705 166.312 26.7057 166.312 25.7366C166.312 24.7553 166.539 23.8905 166.993 23.1422C167.447 22.3817 168.066 21.7867 168.852 21.3574C169.637 20.9281 170.532 20.7134 171.538 20.7134C172.556 20.7134 173.458 20.9281 174.243 21.3574C175.04 21.7867 175.66 22.3755 176.101 23.1238C176.555 23.8721 176.782 24.743 176.782 25.7366C176.782 26.7057 176.555 27.5705 176.101 28.331C175.66 29.0915 175.04 29.6926 174.243 30.1342C173.458 30.5635 172.556 30.7782 171.538 30.7782ZM171.538 28.8094C172.102 28.8094 172.605 28.6867 173.047 28.4414C173.488 28.1961 173.832 27.8403 174.077 27.3742C174.335 26.9081 174.464 26.3622 174.464 25.7366C174.464 25.0987 174.335 24.5529 174.077 24.099C173.832 23.6329 173.488 23.2771 173.047 23.0318C172.605 22.7865 172.108 22.6638 171.556 22.6638C170.992 22.6638 170.489 22.7865 170.048 23.0318C169.618 23.2771 169.275 23.6329 169.017 24.099C168.76 24.5529 168.631 25.0987 168.631 25.7366C168.631 26.3622 168.76 26.9081 169.017 27.3742C169.275 27.8403 169.618 28.1961 170.048 28.4414C170.489 28.6867 170.986 28.8094 171.538 28.8094ZM189.329 30.7782C188.384 30.7782 187.532 30.5697 186.771 30.1526C186.023 29.7233 185.434 29.1345 185.005 28.3862C184.576 27.6379 184.361 26.7547 184.361 25.7366C184.361 24.7185 184.576 23.8353 185.005 23.087C185.434 22.3387 186.023 21.7561 186.771 21.339C187.532 20.9219 188.384 20.7134 189.329 20.7134C190.151 20.7134 190.887 20.8974 191.537 21.2654C192.187 21.6211 192.702 22.167 193.082 22.903C193.463 23.639 193.653 24.5835 193.653 25.7366C193.653 26.8774 193.469 27.8219 193.101 28.5702C192.733 29.3062 192.224 29.8582 191.574 30.2262C190.924 30.5942 190.175 30.7782 189.329 30.7782ZM189.605 28.8094C190.157 28.8094 190.648 28.6867 191.077 28.4414C191.518 28.1961 191.868 27.8403 192.126 27.3742C192.396 26.9081 192.53 26.3622 192.53 25.7366C192.53 25.0987 192.396 24.5529 192.126 24.099C191.868 23.6329 191.518 23.2771 191.077 23.0318C190.648 22.7865 190.157 22.6638 189.605 22.6638C189.053 22.6638 188.556 22.7865 188.114 23.0318C187.685 23.2771 187.336 23.6329 187.066 24.099C186.808 24.5529 186.679 25.0987 186.679 25.7366C186.679 26.3622 186.808 26.9081 187.066 27.3742C187.336 27.8403 187.685 28.1961 188.114 28.4414C188.556 28.6867 189.053 28.8094 189.605 28.8094ZM192.586 30.6494V28.331L192.678 25.7182L192.494 23.1054V16.9966H194.775V30.6494H192.586ZM198.355 30.6494V20.8238H200.655V30.6494H198.355ZM199.514 19.2046C199.084 19.2046 198.729 19.0697 198.447 18.7998C198.177 18.5299 198.042 18.2049 198.042 17.8246C198.042 17.4321 198.177 17.107 198.447 16.8494C198.729 16.5795 199.084 16.4446 199.514 16.4446C199.943 16.4446 200.293 16.5734 200.563 16.831C200.845 17.0763 200.986 17.3891 200.986 17.7694C200.986 18.1742 200.851 18.5177 200.581 18.7998C200.311 19.0697 199.955 19.2046 199.514 19.2046ZM208.678 34.3478C207.77 34.3478 206.881 34.2251 206.01 33.9798C205.151 33.7467 204.446 33.4033 203.894 32.9494L204.924 31.2198C205.354 31.5755 205.894 31.8577 206.544 32.0662C207.206 32.287 207.875 32.3974 208.549 32.3974C209.629 32.3974 210.42 32.1459 210.923 31.643C211.426 31.1523 211.677 30.4102 211.677 29.4166V27.6686L211.861 25.4422L211.788 23.2158V20.8238H213.977V29.159C213.977 30.9377 213.523 32.2441 212.616 33.0782C211.708 33.9246 210.395 34.3478 208.678 34.3478ZM208.384 30.2078C207.451 30.2078 206.605 30.0115 205.844 29.619C205.096 29.2142 204.501 28.6561 204.06 27.9446C203.63 27.2331 203.416 26.399 203.416 25.4422C203.416 24.4977 203.63 23.6697 204.06 22.9582C204.501 22.2467 205.096 21.6947 205.844 21.3022C206.605 20.9097 207.451 20.7134 208.384 20.7134C209.218 20.7134 209.966 20.879 210.628 21.2102C211.291 21.5414 211.818 22.0566 212.211 22.7558C212.616 23.455 212.818 24.3505 212.818 25.4422C212.818 26.5339 212.616 27.4355 212.211 28.147C211.818 28.8462 211.291 29.3675 210.628 29.711C209.966 30.0422 209.218 30.2078 208.384 30.2078ZM208.733 28.2574C209.31 28.2574 209.825 28.1409 210.279 27.9078C210.733 27.6625 211.082 27.3313 211.328 26.9142C211.585 26.4849 211.714 25.9942 211.714 25.4422C211.714 24.8902 211.585 24.4057 211.328 23.9886C211.082 23.5593 210.733 23.2342 210.279 23.0134C209.825 22.7803 209.31 22.6638 208.733 22.6638C208.157 22.6638 207.635 22.7803 207.169 23.0134C206.715 23.2342 206.36 23.5593 206.102 23.9886C205.857 24.4057 205.734 24.8902 205.734 25.4422C205.734 25.9942 205.857 26.4849 206.102 26.9142C206.36 27.3313 206.715 27.6625 207.169 27.9078C207.635 28.1409 208.157 28.2574 208.733 28.2574ZM217.553 30.6494V20.8238H219.853V30.6494H217.553ZM218.712 19.2046C218.283 19.2046 217.927 19.0697 217.645 18.7998C217.375 18.5299 217.24 18.2049 217.24 17.8246C217.24 17.4321 217.375 17.107 217.645 16.8494C217.927 16.5795 218.283 16.4446 218.712 16.4446C219.142 16.4446 219.491 16.5734 219.761 16.831C220.043 17.0763 220.184 17.3891 220.184 17.7694C220.184 18.1742 220.049 18.5177 219.779 18.7998C219.51 19.0697 219.154 19.2046 218.712 19.2046ZM227.122 30.7782C226.043 30.7782 225.209 30.5022 224.62 29.9502C224.031 29.3859 223.737 28.5579 223.737 27.4662V18.6526H226.037V27.411C226.037 27.8771 226.153 28.239 226.386 28.4966C226.632 28.7542 226.969 28.883 227.398 28.883C227.913 28.883 228.343 28.7481 228.686 28.4782L229.33 30.1158C229.06 30.3366 228.729 30.5022 228.337 30.6126C227.944 30.723 227.539 30.7782 227.122 30.7782ZM222.117 22.7374V20.8974H228.668V22.7374H222.117ZM237.828 30.6494V28.6622L237.699 28.239V24.7614C237.699 24.0867 237.497 23.5654 237.092 23.1974C236.687 22.8171 236.074 22.627 235.252 22.627C234.7 22.627 234.154 22.7129 233.614 22.8846C233.087 23.0563 232.639 23.2955 232.271 23.6022L231.369 21.9278C231.897 21.523 232.523 21.2225 233.246 21.0262C233.982 20.8177 234.743 20.7134 235.528 20.7134C236.951 20.7134 238.049 21.0569 238.821 21.7438C239.607 22.4185 239.999 23.4673 239.999 24.8902V30.6494H237.828ZM234.737 30.7782C234.001 30.7782 233.357 30.6555 232.805 30.4102C232.253 30.1526 231.823 29.803 231.517 29.3614C231.222 28.9075 231.075 28.3985 231.075 27.8342C231.075 27.2822 231.204 26.7854 231.461 26.3438C231.731 25.9022 232.167 25.5526 232.768 25.295C233.369 25.0374 234.166 24.9086 235.16 24.9086H238.012V26.4358H235.325C234.54 26.4358 234.013 26.5646 233.743 26.8222C233.473 27.0675 233.338 27.3742 233.338 27.7422C233.338 28.1593 233.504 28.4905 233.835 28.7358C234.166 28.9811 234.626 29.1038 235.215 29.1038C235.779 29.1038 236.282 28.975 236.724 28.7174C237.178 28.4598 237.503 28.0795 237.699 27.5766L238.085 28.9566C237.865 29.5331 237.466 29.9809 236.889 30.2998C236.325 30.6187 235.608 30.7782 234.737 30.7782ZM243.503 30.6494V16.9966H245.803V30.6494H243.503Z" fill="#003336"/>
</svg>
