<svg width="299" height="50" viewBox="0 0 299 50" fill="none" xmlns="http://www.w3.org/2000/svg">
<path d="M32.5 32.7656L24.5 24.7656L16.5 32.7656" stroke="#003336" stroke-width="2" stroke-linecap="round" stroke-linejoin="round"/>
<path d="M24.5 24.7656V42.7656" stroke="#003336" stroke-width="2" stroke-linecap="round" stroke-linejoin="round"/>
<path d="M41.2799 37.5456C43.2306 36.4821 44.7716 34.7994 45.6597 32.7628C46.5477 30.7263 46.7323 28.4521 46.1843 26.299C45.6363 24.1459 44.3869 22.2366 42.6333 20.8725C40.8796 19.5084 38.7216 18.7671 36.4999 18.7656H33.9799C33.3746 16.4241 32.2462 14.2503 30.6798 12.4076C29.1134 10.5649 27.1496 9.10129 24.9361 8.12681C22.7226 7.15232 20.317 6.69231 17.9002 6.78136C15.4833 6.8704 13.1181 7.50619 10.9823 8.64092C8.84649 9.77565 6.99574 11.3798 5.56916 13.3328C4.14259 15.2857 3.1773 17.5367 2.74588 19.9164C2.31446 22.2961 2.42813 24.7427 3.07835 27.0721C3.72856 29.4016 4.8984 31.5533 6.49992 33.3656" stroke="#003336" stroke-width="2" stroke-linecap="round" stroke-linejoin="round"/>
<path d="M32.5 32.7656L24.5 24.7656L16.5 32.7656" stroke="#003336" stroke-width="2" stroke-linecap="round" stroke-linejoin="round"/>
<g style="mix-blend-mode:multiply">
<path d="M0.5 44.7656C0.5 42.0042 2.73858 39.7656 5.5 39.7656H45.5C48.2614 39.7656 50.5 42.0042 50.5 44.7656C50.5 47.527 48.2614 49.7656 45.5 49.7656H5.5C2.73858 49.7656 0.5 47.527 0.5 44.7656Z" fill="#0CAD9A"/>
</g>
<path d="M72.768 31.5209C71.0016 31.5209 69.6155 31.0241 68.6096 30.0305C67.616 29.0369 67.1192 27.6017 67.1192 25.7249V18.4569H69.5112V25.6329C69.5112 26.9577 69.7933 27.9206 70.3576 28.5217C70.9341 29.1228 71.7437 29.4233 72.7864 29.4233C73.8291 29.4233 74.6325 29.1228 75.1968 28.5217C75.7611 27.9206 76.0432 26.9577 76.0432 25.6329V18.4569H78.3984V25.7249C78.3984 27.6017 77.8955 29.0369 76.8896 30.0305C75.896 31.0241 74.5221 31.5209 72.768 31.5209ZM87.5259 31.4657C86.7286 31.4657 85.9987 31.2817 85.3363 30.9137C84.6862 30.5457 84.1649 29.9937 83.7723 29.2577C83.3921 28.5094 83.2019 27.5649 83.2019 26.4241C83.2019 25.271 83.3859 24.3265 83.7539 23.5905C84.1342 22.8545 84.6494 22.3086 85.2995 21.9529C85.9497 21.5849 86.6918 21.4009 87.5259 21.4009C88.495 21.4009 89.3475 21.6094 90.0835 22.0265C90.8318 22.4436 91.4206 23.0262 91.8499 23.7745C92.2915 24.5228 92.5123 25.406 92.5123 26.4241C92.5123 27.4422 92.2915 28.3316 91.8499 29.0921C91.4206 29.8404 90.8318 30.423 90.0835 30.8401C89.3475 31.2572 88.495 31.4657 87.5259 31.4657ZM82.0795 34.9065V21.5113H84.2691V23.8297L84.1955 26.4425L84.3795 29.0553V34.9065H82.0795ZM87.2683 29.4969C87.8203 29.4969 88.311 29.3742 88.7403 29.1289C89.1819 28.8836 89.5315 28.5278 89.7891 28.0617C90.0467 27.5956 90.1755 27.0497 90.1755 26.4241C90.1755 25.7862 90.0467 25.2404 89.7891 24.7865C89.5315 24.3204 89.1819 23.9646 88.7403 23.7193C88.311 23.474 87.8203 23.3513 87.2683 23.3513C86.7163 23.3513 86.2195 23.474 85.7779 23.7193C85.3363 23.9646 84.9867 24.3204 84.7291 24.7865C84.4715 25.2404 84.3427 25.7862 84.3427 26.4241C84.3427 27.0497 84.4715 27.5956 84.7291 28.0617C84.9867 28.5278 85.3363 28.8836 85.7779 29.1289C86.2195 29.3742 86.7163 29.4969 87.2683 29.4969ZM95.2456 31.3369V17.6841H97.5456V31.3369H95.2456ZM105.532 31.4657C104.526 31.4657 103.631 31.251 102.846 30.8217C102.061 30.3801 101.441 29.779 100.988 29.0185C100.534 28.258 100.307 27.3932 100.307 26.4241C100.307 25.4428 100.534 24.578 100.988 23.8297C101.441 23.0692 102.061 22.4742 102.846 22.0449C103.631 21.6156 104.526 21.4009 105.532 21.4009C106.55 21.4009 107.452 21.6156 108.237 22.0449C109.034 22.4742 109.654 23.063 110.096 23.8113C110.549 24.5596 110.776 25.4305 110.776 26.4241C110.776 27.3932 110.549 28.258 110.096 29.0185C109.654 29.779 109.034 30.3801 108.237 30.8217C107.452 31.251 106.55 31.4657 105.532 31.4657ZM105.532 29.4969C106.097 29.4969 106.6 29.3742 107.041 29.1289C107.483 28.8836 107.826 28.5278 108.072 28.0617C108.329 27.5956 108.458 27.0497 108.458 26.4241C108.458 25.7862 108.329 25.2404 108.072 24.7865C107.826 24.3204 107.483 23.9646 107.041 23.7193C106.6 23.474 106.103 23.3513 105.551 23.3513C104.986 23.3513 104.484 23.474 104.042 23.7193C103.613 23.9646 103.269 24.3204 103.012 24.7865C102.754 25.2404 102.625 25.7862 102.625 26.4241C102.625 27.0497 102.754 27.5956 103.012 28.0617C103.269 28.5278 103.613 28.8836 104.042 29.1289C104.484 29.3742 104.98 29.4969 105.532 29.4969ZM119.456 31.3369V29.3497L119.327 28.9265V25.4489C119.327 24.7742 119.124 24.2529 118.72 23.8849C118.315 23.5046 117.701 23.3145 116.88 23.3145C116.328 23.3145 115.782 23.4004 115.242 23.5721C114.714 23.7438 114.267 23.983 113.899 24.2897L112.997 22.6153C113.525 22.2105 114.15 21.91 114.874 21.7137C115.61 21.5052 116.37 21.4009 117.156 21.4009C118.578 21.4009 119.676 21.7444 120.449 22.4313C121.234 23.106 121.627 24.1548 121.627 25.5777V31.3369H119.456ZM116.364 31.4657C115.628 31.4657 114.984 31.343 114.432 31.0977C113.88 30.8401 113.451 30.4905 113.144 30.0489C112.85 29.595 112.703 29.086 112.703 28.5217C112.703 27.9697 112.832 27.4729 113.089 27.0313C113.359 26.5897 113.794 26.2401 114.396 25.9825C114.997 25.7249 115.794 25.5961 116.788 25.5961H119.64V27.1233H116.953C116.168 27.1233 115.641 27.2521 115.371 27.5097C115.101 27.755 114.966 28.0617 114.966 28.4297C114.966 28.8468 115.132 29.178 115.463 29.4233C115.794 29.6686 116.254 29.7913 116.843 29.7913C117.407 29.7913 117.91 29.6625 118.352 29.4049C118.805 29.1473 119.13 28.767 119.327 28.2641L119.713 29.6441C119.492 30.2206 119.094 30.6684 118.517 30.9873C117.953 31.3062 117.235 31.4657 116.364 31.4657ZM129.307 31.4657C128.362 31.4657 127.51 31.2572 126.749 30.8401C126.001 30.4108 125.412 29.822 124.983 29.0737C124.554 28.3254 124.339 27.4422 124.339 26.4241C124.339 25.406 124.554 24.5228 124.983 23.7745C125.412 23.0262 126.001 22.4436 126.749 22.0265C127.51 21.6094 128.362 21.4009 129.307 21.4009C130.129 21.4009 130.865 21.5849 131.515 21.9529C132.165 22.3086 132.68 22.8545 133.06 23.5905C133.441 24.3265 133.631 25.271 133.631 26.4241C133.631 27.5649 133.447 28.5094 133.079 29.2577C132.711 29.9937 132.202 30.5457 131.552 30.9137C130.902 31.2817 130.153 31.4657 129.307 31.4657ZM129.583 29.4969C130.135 29.4969 130.626 29.3742 131.055 29.1289C131.496 28.8836 131.846 28.5278 132.104 28.0617C132.374 27.5956 132.508 27.0497 132.508 26.4241C132.508 25.7862 132.374 25.2404 132.104 24.7865C131.846 24.3204 131.496 23.9646 131.055 23.7193C130.626 23.474 130.135 23.3513 129.583 23.3513C129.031 23.3513 128.534 23.474 128.092 23.7193C127.663 23.9646 127.314 24.3204 127.044 24.7865C126.786 25.2404 126.657 25.7862 126.657 26.4241C126.657 27.0497 126.786 27.5956 127.044 28.0617C127.314 28.5278 127.663 28.8836 128.092 29.1289C128.534 29.3742 129.031 29.4969 129.583 29.4969ZM132.564 31.3369V29.0185L132.656 26.4057L132.472 23.7929V17.6841H134.753V31.3369H132.564ZM148.128 31.4657C147.184 31.4657 146.331 31.2572 145.57 30.8401C144.822 30.4108 144.233 29.822 143.804 29.0737C143.375 28.3254 143.16 27.4422 143.16 26.4241C143.16 25.406 143.375 24.5228 143.804 23.7745C144.233 23.0262 144.822 22.4436 145.57 22.0265C146.331 21.6094 147.184 21.4009 148.128 21.4009C148.95 21.4009 149.686 21.5849 150.336 21.9529C150.986 22.3086 151.501 22.8545 151.882 23.5905C152.262 24.3265 152.452 25.271 152.452 26.4241C152.452 27.5649 152.268 28.5094 151.9 29.2577C151.532 29.9937 151.023 30.5457 150.373 30.9137C149.723 31.2817 148.974 31.4657 148.128 31.4657ZM148.404 29.4969C148.956 29.4969 149.447 29.3742 149.876 29.1289C150.318 28.8836 150.667 28.5278 150.925 28.0617C151.195 27.5956 151.33 27.0497 151.33 26.4241C151.33 25.7862 151.195 25.2404 150.925 24.7865C150.667 24.3204 150.318 23.9646 149.876 23.7193C149.447 23.474 148.956 23.3513 148.404 23.3513C147.852 23.3513 147.355 23.474 146.914 23.7193C146.484 23.9646 146.135 24.3204 145.865 24.7865C145.607 25.2404 145.478 25.7862 145.478 26.4241C145.478 27.0497 145.607 27.5956 145.865 28.0617C146.135 28.5278 146.484 28.8836 146.914 29.1289C147.355 29.3742 147.852 29.4969 148.404 29.4969ZM151.385 31.3369V29.0185L151.477 26.4057L151.293 23.7929V17.6841H153.574V31.3369H151.385ZM161.772 31.4657C160.68 31.4657 159.724 31.251 158.902 30.8217C158.092 30.3801 157.46 29.779 157.007 29.0185C156.565 28.258 156.344 27.3932 156.344 26.4241C156.344 25.4428 156.559 24.578 156.988 23.8297C157.43 23.0692 158.031 22.4742 158.791 22.0449C159.564 21.6156 160.441 21.4009 161.423 21.4009C162.379 21.4009 163.232 21.6094 163.98 22.0265C164.728 22.4436 165.317 23.0324 165.747 23.7929C166.176 24.5534 166.391 25.4489 166.391 26.4793C166.391 26.5774 166.384 26.6878 166.372 26.8105C166.372 26.9332 166.366 27.0497 166.354 27.1601H158.166V25.6329H165.139L164.238 26.1113C164.25 25.547 164.133 25.0502 163.888 24.6209C163.643 24.1916 163.305 23.8542 162.876 23.6089C162.459 23.3636 161.975 23.2409 161.423 23.2409C160.858 23.2409 160.361 23.3636 159.932 23.6089C159.515 23.8542 159.184 24.1977 158.939 24.6393C158.705 25.0686 158.589 25.5777 158.589 26.1665V26.5345C158.589 27.1233 158.724 27.6446 158.994 28.0985C159.264 28.5524 159.644 28.902 160.135 29.1473C160.625 29.3926 161.189 29.5153 161.827 29.5153C162.379 29.5153 162.876 29.4294 163.318 29.2577C163.759 29.086 164.152 28.8161 164.495 28.4481L165.728 29.8649C165.287 30.3801 164.728 30.7788 164.054 31.0609C163.391 31.3308 162.631 31.4657 161.772 31.4657ZM178.947 31.4657C178.003 31.4657 177.15 31.2572 176.39 30.8401C175.641 30.4108 175.053 29.822 174.623 29.0737C174.194 28.3254 173.979 27.4422 173.979 26.4241C173.979 25.406 174.194 24.5228 174.623 23.7745C175.053 23.0262 175.641 22.4436 176.39 22.0265C177.15 21.6094 178.003 21.4009 178.947 21.4009C179.769 21.4009 180.505 21.5849 181.155 21.9529C181.805 22.3086 182.321 22.8545 182.701 23.5905C183.081 24.3265 183.271 25.271 183.271 26.4241C183.271 27.5649 183.087 28.5094 182.719 29.2577C182.351 29.9937 181.842 30.5457 181.192 30.9137C180.542 31.2817 179.794 31.4657 178.947 31.4657ZM179.223 29.4969C179.775 29.4969 180.266 29.3742 180.695 29.1289C181.137 28.8836 181.487 28.5278 181.744 28.0617C182.014 27.5956 182.149 27.0497 182.149 26.4241C182.149 25.7862 182.014 25.2404 181.744 24.7865C181.487 24.3204 181.137 23.9646 180.695 23.7193C180.266 23.474 179.775 23.3513 179.223 23.3513C178.671 23.3513 178.175 23.474 177.733 23.7193C177.304 23.9646 176.954 24.3204 176.684 24.7865C176.427 25.2404 176.298 25.7862 176.298 26.4241C176.298 27.0497 176.427 27.5956 176.684 28.0617C176.954 28.5278 177.304 28.8836 177.733 29.1289C178.175 29.3742 178.671 29.4969 179.223 29.4969ZM182.204 31.3369V29.0185L182.296 26.4057L182.112 23.7929V17.6841H184.394V31.3369H182.204ZM192.389 31.4657C191.383 31.4657 190.488 31.251 189.703 30.8217C188.918 30.3801 188.298 29.779 187.844 29.0185C187.39 28.258 187.163 27.3932 187.163 26.4241C187.163 25.4428 187.39 24.578 187.844 23.8297C188.298 23.0692 188.918 22.4742 189.703 22.0449C190.488 21.6156 191.383 21.4009 192.389 21.4009C193.407 21.4009 194.309 21.6156 195.094 22.0449C195.891 22.4742 196.511 23.063 196.952 23.8113C197.406 24.5596 197.633 25.4305 197.633 26.4241C197.633 27.3932 197.406 28.258 196.952 29.0185C196.511 29.779 195.891 30.3801 195.094 30.8217C194.309 31.251 193.407 31.4657 192.389 31.4657ZM192.389 29.4969C192.953 29.4969 193.456 29.3742 193.898 29.1289C194.339 28.8836 194.683 28.5278 194.928 28.0617C195.186 27.5956 195.315 27.0497 195.315 26.4241C195.315 25.7862 195.186 25.2404 194.928 24.7865C194.683 24.3204 194.339 23.9646 193.898 23.7193C193.456 23.474 192.959 23.3513 192.407 23.3513C191.843 23.3513 191.34 23.474 190.899 23.7193C190.469 23.9646 190.126 24.3204 189.868 24.7865C189.611 25.2404 189.482 25.7862 189.482 26.4241C189.482 27.0497 189.611 27.5956 189.868 28.0617C190.126 28.5278 190.469 28.8836 190.899 29.1289C191.34 29.3742 191.837 29.4969 192.389 29.4969ZM204.892 31.4657C203.862 31.4657 202.942 31.251 202.132 30.8217C201.335 30.3801 200.709 29.779 200.256 29.0185C199.802 28.258 199.575 27.3932 199.575 26.4241C199.575 25.4428 199.802 24.578 200.256 23.8297C200.709 23.0692 201.335 22.4742 202.132 22.0449C202.942 21.6156 203.862 21.4009 204.892 21.4009C205.849 21.4009 206.689 21.5972 207.413 21.9897C208.149 22.37 208.707 22.9342 209.088 23.6825L207.321 24.7129C207.027 24.2468 206.665 23.9033 206.236 23.6825C205.818 23.4617 205.365 23.3513 204.874 23.3513C204.31 23.3513 203.801 23.474 203.347 23.7193C202.893 23.9646 202.537 24.3204 202.28 24.7865C202.022 25.2404 201.893 25.7862 201.893 26.4241C201.893 27.062 202.022 27.614 202.28 28.0801C202.537 28.534 202.893 28.8836 203.347 29.1289C203.801 29.3742 204.31 29.4969 204.874 29.4969C205.365 29.4969 205.818 29.3865 206.236 29.1657C206.665 28.9449 207.027 28.6014 207.321 28.1353L209.088 29.1657C208.707 29.9017 208.149 30.4721 207.413 30.8769C206.689 31.2694 205.849 31.4657 204.892 31.4657ZM215.786 31.4657C214.952 31.4657 214.216 31.3124 213.578 31.0057C212.94 30.6868 212.444 30.2084 212.088 29.5705C211.732 28.9204 211.554 28.1046 211.554 27.1233V21.5113H213.854V26.8105C213.854 27.6937 214.05 28.3561 214.443 28.7977C214.848 29.227 215.418 29.4417 216.154 29.4417C216.694 29.4417 217.16 29.3313 217.553 29.1105C217.957 28.8897 218.27 28.5585 218.491 28.1169C218.724 27.6753 218.841 27.1294 218.841 26.4793V21.5113H221.141V31.3369H218.951V28.6873L219.337 29.4969C219.006 30.1348 218.522 30.6254 217.884 30.9689C217.246 31.3001 216.547 31.4657 215.786 31.4657ZM237.106 21.4009C237.891 21.4009 238.584 21.5542 239.185 21.8609C239.798 22.1676 240.277 22.6398 240.62 23.2777C240.963 23.9033 241.135 24.7129 241.135 25.7065V31.3369H238.835V26.0009C238.835 25.13 238.645 24.4798 238.265 24.0505C237.885 23.6212 237.339 23.4065 236.627 23.4065C236.124 23.4065 235.677 23.5169 235.284 23.7377C234.904 23.9585 234.603 24.2836 234.382 24.7129C234.174 25.1422 234.07 25.6881 234.07 26.3505V31.3369H231.77V26.0009C231.77 25.13 231.579 24.4798 231.199 24.0505C230.819 23.6212 230.273 23.4065 229.562 23.4065C229.059 23.4065 228.611 23.5169 228.218 23.7377C227.838 23.9585 227.538 24.2836 227.317 24.7129C227.108 25.1422 227.004 25.6881 227.004 26.3505V31.3369H224.704V21.5113H226.894V24.1241L226.507 23.3513C226.838 22.7134 227.317 22.2289 227.942 21.8977C228.58 21.5665 229.304 21.4009 230.114 21.4009C231.034 21.4009 231.831 21.6278 232.506 22.0817C233.193 22.5356 233.646 23.2225 233.867 24.1425L232.966 23.8297C233.285 23.0937 233.812 22.5049 234.548 22.0633C235.284 21.6217 236.137 21.4009 237.106 21.4009ZM249.263 31.4657C248.171 31.4657 247.214 31.251 246.392 30.8217C245.583 30.3801 244.951 29.779 244.497 29.0185C244.055 28.258 243.835 27.3932 243.835 26.4241C243.835 25.4428 244.049 24.578 244.479 23.8297C244.92 23.0692 245.521 22.4742 246.282 22.0449C247.055 21.6156 247.932 21.4009 248.913 21.4009C249.87 21.4009 250.722 21.6094 251.471 22.0265C252.219 22.4436 252.808 23.0324 253.237 23.7929C253.666 24.5534 253.881 25.4489 253.881 26.4793C253.881 26.5774 253.875 26.6878 253.863 26.8105C253.863 26.9332 253.857 27.0497 253.844 27.1601H245.656V25.6329H252.63L251.728 26.1113C251.741 25.547 251.624 25.0502 251.379 24.6209C251.133 24.1916 250.796 23.8542 250.367 23.6089C249.95 23.3636 249.465 23.2409 248.913 23.2409C248.349 23.2409 247.852 23.3636 247.423 23.6089C247.006 23.8542 246.674 24.1977 246.429 24.6393C246.196 25.0686 246.079 25.5777 246.079 26.1665V26.5345C246.079 27.1233 246.214 27.6446 246.484 28.0985C246.754 28.5524 247.134 28.902 247.625 29.1473C248.116 29.3926 248.68 29.5153 249.318 29.5153C249.87 29.5153 250.367 29.4294 250.808 29.2577C251.25 29.086 251.642 28.8161 251.986 28.4481L253.219 29.8649C252.777 30.3801 252.219 30.7788 251.544 31.0609C250.882 31.3308 250.121 31.4657 249.263 31.4657ZM262.218 21.4009C263.003 21.4009 263.702 21.5542 264.315 21.8609C264.941 22.1676 265.431 22.6398 265.787 23.2777C266.143 23.9033 266.321 24.7129 266.321 25.7065V31.3369H264.021V26.0009C264.021 25.13 263.812 24.4798 263.395 24.0505C262.99 23.6212 262.42 23.4065 261.684 23.4065C261.144 23.4065 260.666 23.5169 260.249 23.7377C259.832 23.9585 259.507 24.2897 259.274 24.7313C259.053 25.1606 258.942 25.7065 258.942 26.3689V31.3369H256.642V21.5113H258.832V24.1609L258.446 23.3513C258.789 22.7257 259.286 22.2473 259.936 21.9161C260.598 21.5726 261.359 21.4009 262.218 21.4009ZM273.489 31.4657C272.409 31.4657 271.575 31.1897 270.986 30.6377C270.398 30.0734 270.103 29.2454 270.103 28.1537V19.3401H272.403V28.0985C272.403 28.5646 272.52 28.9265 272.753 29.1841C272.998 29.4417 273.336 29.5705 273.765 29.5705C274.28 29.5705 274.709 29.4356 275.053 29.1657L275.697 30.8033C275.427 31.0241 275.096 31.1897 274.703 31.3001C274.311 31.4105 273.906 31.4657 273.489 31.4657ZM268.484 23.4249V21.5849H275.034V23.4249H268.484ZM282.233 31.4657C281.228 31.4657 280.332 31.251 279.547 30.8217C278.762 30.3801 278.143 29.779 277.689 29.0185C277.235 28.258 277.008 27.3932 277.008 26.4241C277.008 25.4428 277.235 24.578 277.689 23.8297C278.143 23.0692 278.762 22.4742 279.547 22.0449C280.332 21.6156 281.228 21.4009 282.233 21.4009C283.252 21.4009 284.153 21.6156 284.938 22.0449C285.736 22.4742 286.355 23.063 286.797 23.8113C287.251 24.5596 287.477 25.4305 287.477 26.4241C287.477 27.3932 287.251 28.258 286.797 29.0185C286.355 29.779 285.736 30.3801 284.938 30.8217C284.153 31.251 283.252 31.4657 282.233 31.4657ZM282.233 29.4969C282.798 29.4969 283.301 29.3742 283.742 29.1289C284.184 28.8836 284.527 28.5278 284.773 28.0617C285.03 27.5956 285.159 27.0497 285.159 26.4241C285.159 25.7862 285.03 25.2404 284.773 24.7865C284.527 24.3204 284.184 23.9646 283.742 23.7193C283.301 23.474 282.804 23.3513 282.252 23.3513C281.688 23.3513 281.185 23.474 280.743 23.7193C280.314 23.9646 279.97 24.3204 279.713 24.7865C279.455 25.2404 279.326 25.7862 279.326 26.4241C279.326 27.0497 279.455 27.5956 279.713 28.0617C279.97 28.5278 280.314 28.8836 280.743 29.1289C281.185 29.3742 281.681 29.4969 282.233 29.4969ZM293.265 31.4657C292.443 31.4657 291.652 31.3614 290.891 31.1529C290.143 30.9321 289.548 30.6684 289.106 30.3617L289.99 28.6137C290.431 28.8958 290.959 29.1289 291.572 29.3129C292.185 29.4969 292.799 29.5889 293.412 29.5889C294.136 29.5889 294.657 29.4908 294.976 29.2945C295.307 29.0982 295.473 28.8345 295.473 28.5033C295.473 28.2334 295.362 28.031 295.142 27.8961C294.921 27.7489 294.633 27.6385 294.277 27.5649C293.921 27.4913 293.522 27.4238 293.081 27.3625C292.651 27.3012 292.216 27.2214 291.774 27.1233C291.345 27.0129 290.953 26.8596 290.597 26.6633C290.241 26.4548 289.953 26.1788 289.732 25.8353C289.511 25.4918 289.401 25.038 289.401 24.4737C289.401 23.8481 289.579 23.3084 289.934 22.8545C290.29 22.3884 290.787 22.0326 291.425 21.7873C292.075 21.5297 292.842 21.4009 293.725 21.4009C294.387 21.4009 295.056 21.4745 295.73 21.6217C296.405 21.7689 296.963 21.9774 297.405 22.2473L296.522 23.9953C296.055 23.7132 295.583 23.523 295.105 23.4249C294.639 23.3145 294.173 23.2593 293.706 23.2593C293.007 23.2593 292.486 23.3636 292.142 23.5721C291.811 23.7806 291.646 24.0444 291.646 24.3633C291.646 24.6577 291.756 24.8785 291.977 25.0257C292.198 25.1729 292.486 25.2894 292.842 25.3753C293.197 25.4612 293.59 25.5348 294.019 25.5961C294.461 25.6452 294.896 25.7249 295.326 25.8353C295.755 25.9457 296.147 26.099 296.503 26.2953C296.871 26.4793 297.166 26.743 297.386 27.0865C297.607 27.43 297.718 27.8777 297.718 28.4297C297.718 29.043 297.534 29.5766 297.166 30.0305C296.81 30.4844 296.301 30.8401 295.638 31.0977C294.976 31.343 294.185 31.4657 293.265 31.4657Z" fill="#003336"/>
</svg>
